<svg xmlns="http://www.w3.org/2000/svg" width="709" height="709" viewBox="-22.295 -47.089 709 709"><path fill-rule="evenodd" clip-rule="evenodd" d="M545.922 0c86.21 1.125 127.485 47.182 131.002 130.999C646.72 73.868 605.918 27.338 545.922 0z"/><path fill-rule="evenodd" clip-rule="evenodd" d="M630.137 130.999c-29.938-23.085-38.428-67.618-84.215-74.857 15.904-34.211 99.391 16.56 84.215 74.857zM583.354 102.928c13.671 59.548 16.504 174.853 0 233.927-40.722-40.375-8.364-153.829-18.714-224.57-156.627-15.824-376.62-15.146-533.353 0-21.25 91.034-3.547 221.022-9.356 327.497 66.441 20.89 170.853 3.811 252.641 9.354-47.743 42.714-173.961 6.942-252.641 18.717 20.635 80.673 145.442 46.785 233.925 46.785h280.709c43.447 9.135 12.698-55.922 56.144-46.785 13.865 104.311-127.469 53.432-205.853 65.499 1.005 48.897 33.755 66.054 56.143 93.568H143.573c26.351-23.55 58.203-41.606 65.5-84.211-43.805-21.694-127.774-3.226-187.142-9.357-34.704-106.128-20.535-309.44-9.355-430.424 149.625-30.717 421.15-30.717 570.778 0zM209.073 608.205h177.783c2.154-36.465-20.107-48.514-28.072-74.854-80.171-5.313-158.999-9.288-149.711 74.854z"/><path fill-rule="evenodd" clip-rule="evenodd" d="M377.498 140.356c-32.114 41.347-59.082 21.489-93.569 46.785-210.153 154.126 185.238 385.472 205.852 93.57 31.441-9.607 14.563 29.1 18.718 46.785 43.062 56.745 166.352 33.265 168.426 130.998-68.414 16.949-133.708-37.577-187.144-65.5-208.968 222.423-434.62-249.766-112.283-252.638zm112.283 233.926c53.772 27.325 107.95 54.238 168.428 74.854-23.029-48.872-132.299-100.21-168.428-74.854zM50.003 168.428c38.754-1.325 9.743 65.111 18.714 93.569-38.754 1.325-9.747-65.11-18.714-93.569z"/><path fill-rule="evenodd" clip-rule="evenodd" d="M405.568 233.927c-4.249 39.415-44.253 43.077-56.141 74.855-32.854 1.663-30.774-31.605-56.145-37.427-27.67 34.502 29.841 46.353 37.432 74.854 63.663-9.553 80.323-111.036 140.354-93.567-37.33 43.762-81.39 80.8-121.642 121.641-42.829-19.552-74.018-50.741-93.571-93.571 33.72-37.785 50.497-37.785 84.216 0 28.591-8.837 29.327-45.533 65.497-46.785z"/></svg>