<svg xmlns="http://www.w3.org/2000/svg" width="709" height="709" viewBox="-108.091 -15.155 709 709"><path fill-rule="evenodd" clip-rule="evenodd" d="M384.053 105.941c188.103-35.658 168.992 280.772 18.503 240.542 114.683-11.899 145.166-218.537 0-222.039-24.533-2.948 8.654 51.828-27.755 37.007C394.62-10.969 150.97-24.066 125.009 115.193c-7.144 41.066 30.602 37.244 46.259 55.509-56.423-5.088-142.834-21.616-157.277 55.509-10.157 54.249 22.499 97.971 92.514 111.02-112.26 69.336-168.951-218.485 0-194.284C91.173-28.105 366.206-52.044 384.053 105.941z"/><path fill-rule="evenodd" clip-rule="evenodd" d="M245.281 41.181c-18.939 30.403-50.548 48.136-83.267 64.76 12.051-37.292 37.02-61.666 83.267-64.76zM300.79 207.708c-51.227-31.941-15.133 93.079-37.006 120.271-23.687 7.609-66.672 43.732-92.516 18.505 50.17-23.845 104.233-43.792 83.266-138.775-6.09-27.708-19.775 8.848-37.011 0 6.336-56.742 83.726-74.727 83.267-.001zM337.795 327.979c-36.53 34.396-87.113 54.743-64.765 148.025 4.044 13.729 11.844-3.65 27.759 0-11.931 62.336-71.335 62.336-83.267 0 16.599-1.177 19.515 11.325 37.011 9.251-5.249-85.429-6-166.359 83.262-157.276zM50.996 374.237c39.491 3.684 8.822 77.527 18.504 111.018-39.489-3.686-8.82-77.529-18.504-111.018z"/><path fill-rule="evenodd" clip-rule="evenodd" d="M226.777 420.495H125.009c-19.654 38.938-4.49 112.697-9.25 166.525h277.545c19.766-49.984 16.813-124.241 9.252-157.274-18.147-25.025-91.991 5.646-111.019-18.505 21.895-21.279 83.034-3.313 120.271-9.249 45.538 37.728-19.75 186.278 55.51 194.281 22.423 91.204-117.398 64.761-203.534 64.761-82.93 0-227.874 26.271-212.788-55.509-9.497-31.085 28.773-14.401 46.259-18.505-29.009-116.279 21.998-248.13 129.522-166.525zM69.5 624.027c-.031 9.282 7.495 11.01 9.254 18.503 115.942-16.66 299.684 34.476 370.059-27.755-102.11-9.531-292.52-27.354-379.313 9.252z"/><path fill-rule="evenodd" clip-rule="evenodd" d="M458.065 438.997c14.128.149 20.285 68.561-9.252 55.511-1.222-22.808-1.4-44.577 9.252-55.511z"/></svg>