<?xml version="1.0" encoding="utf-8"?>
<!-- Generator: Adobe Illustrator 15.0.0, SVG Export Plug-In  -->
<!DOCTYPE svg PUBLIC "-//W3C//DTD SVG 1.1//EN" "http://www.w3.org/Graphics/SVG/1.1/DTD/svg11.dtd" [
	<!ENTITY ns_flows "http://ns.adobe.com/Flows/1.0/">
]>
<svg version="1.1"
	 xmlns="http://www.w3.org/2000/svg" xmlns:xlink="http://www.w3.org/1999/xlink" xmlns:a="http://ns.adobe.com/AdobeSVGViewerExtensions/3.0/"
	 x="0px" y="0px" width="709px" height="709px" viewBox="-82.143 -40.192 709 709" enable-background="new -82.143 -40.192 709 709"
	 xml:space="preserve">
<defs>
</defs>
<path fill-rule="evenodd" clip-rule="evenodd" d="M540.89,26.742c12.68,128.375,29.726,349.539-10.96,460.453
	c-59.764,27.945-182.124-6.715-241.188,21.929c11.385,83.624,124.534,65.485,219.264,65.778
	c-42.958,52.059-198.029-7.998-219.264,65.778c-46.263-48.752-141.253-48.779-241.195-43.851
	c45.709-56.616,228.173,23.525,219.264-87.706c-51.324-25.418-149.708-3.776-219.264-10.963
	C-26.825,380.452,2.578,143.45,25.62,26.742C151.773-8.914,414.737-8.914,540.89,26.742z M69.471,26.742
	c-46.809,8.004-30.257,79.373-32.886,131.557c164.448,0,328.896,0,493.345,0c1.09-44.945,2.156-89.862-10.965-120.594
	C389.685,13.497,216.655,33.042,69.471,26.742z M36.585,180.227c0,47.508,0,95.015,0,142.52c164.448,0,328.896,0,493.345,0
	c0-47.504,0-95.012,0-142.52C365.48,180.227,201.033,180.227,36.585,180.227z M36.585,344.675
	c3.563,40.288-9.354,97.057,10.962,120.596c132.042,25.096,310.264,4.01,460.459,10.962c24.405-26.75,24.04-78.278,21.924-131.558
	C365.48,344.675,201.033,344.675,36.585,344.675z M255.849,607.792c34.418,12.176,28.965,5.13,54.817-10.963
	c-1.339-27.897-15.957-42.515-43.855-43.853C257.611,565.7,252.354,582.369,255.849,607.792z"/>
<path fill-rule="evenodd" clip-rule="evenodd" d="M464.148,103.482c-14.616,0-29.233,0-43.852,0
	C411.659,61.271,472.788,61.271,464.148,103.482z"/>
<path fill-rule="evenodd" clip-rule="evenodd" d="M91.4,92.52C124.638,51.987,128.331,125.815,91.4,92.52L91.4,92.52z"/>
<path fill-rule="evenodd" clip-rule="evenodd" d="M233.92,235.042c7.312,0,14.621,0,21.929,0c0,7.309,0,14.617,0,21.925
	c-7.308,0-14.617,0-21.929,0C233.92,249.66,233.92,242.351,233.92,235.042z"/>
<path fill-rule="evenodd" clip-rule="evenodd" d="M442.224,377.563c27.895,1.114,25.901,40.853,10.964,54.816
	C408.342,438.383,416.129,385.045,442.224,377.563z"/>
<path fill-rule="evenodd" clip-rule="evenodd" d="M146.217,388.528c8.879,2.084,10.925,10.998,21.927,10.963
	c-2.086,8.879-11.002,10.926-10.966,21.925c-8.877-2.083-10.924-10.999-21.925-10.962
	C137.338,401.575,146.253,399.526,146.217,388.528z"/>
<path fill-rule="evenodd" clip-rule="evenodd" d="M190.066,388.528C237.58,393.094,178.521,452.157,190.066,388.528L190.066,388.528
	z"/>
<path fill-rule="evenodd" clip-rule="evenodd" d="M91.4,410.454C124.638,369.92,128.331,443.748,91.4,410.454L91.4,410.454z"/>
<path fill-rule="evenodd" clip-rule="evenodd" fill="#FFFFFF" d="M266.811,552.977c27.898,1.338,42.517,15.955,43.855,43.853
	c-25.853,16.093-20.399,23.139-54.817,10.963C252.354,582.369,257.611,565.7,266.811,552.977z"/>
<path fill-rule="evenodd" clip-rule="evenodd" fill="#FFFFFF" d="M518.965,37.705c13.121,30.732,12.055,75.649,10.965,120.594
	c-164.449,0-328.896,0-493.345,0c2.629-52.185-13.923-123.553,32.886-131.557C216.655,33.042,389.685,13.497,518.965,37.705z
	 M420.297,103.482c14.618,0,29.235,0,43.852,0C472.788,61.271,411.659,61.271,420.297,103.482z M91.4,92.52
	C128.331,125.815,124.638,51.987,91.4,92.52L91.4,92.52z"/>
<path fill-rule="evenodd" clip-rule="evenodd" fill="#FFFFFF" d="M529.93,180.227c0,47.508,0,95.015,0,142.52
	c-164.449,0-328.896,0-493.345,0c0-47.504,0-95.012,0-142.52C201.033,180.227,365.48,180.227,529.93,180.227z M233.92,256.968
	c7.312,0,14.621,0,21.929,0c0-7.308,0-14.617,0-21.925c-7.308,0-14.617,0-21.929,0C233.92,242.351,233.92,249.66,233.92,256.968z"/>
<path fill-rule="evenodd" clip-rule="evenodd" fill="#FFFFFF" d="M529.93,344.675c2.116,53.279,2.481,104.808-21.924,131.558
	c-150.195-6.952-328.417,14.134-460.459-10.962c-20.316-23.539-7.399-80.308-10.962-120.596
	C201.033,344.675,365.48,344.675,529.93,344.675z M453.188,432.379c14.938-13.964,16.931-53.702-10.964-54.816
	C416.129,385.045,408.342,438.383,453.188,432.379z M135.252,410.454c11-0.037,13.047,8.879,21.925,10.962
	c-0.036-10.999,8.88-13.046,10.966-21.925c-11.002,0.035-13.048-8.879-21.927-10.963
	C146.253,399.526,137.338,401.575,135.252,410.454z M190.066,388.528C178.521,452.157,237.58,393.094,190.066,388.528
	L190.066,388.528z M91.4,410.454C128.331,443.748,124.638,369.92,91.4,410.454L91.4,410.454z"/>
</svg>
