<?xml version="1.0" encoding="utf-8"?>
<!-- Generator: Adobe Illustrator 15.0.0, SVG Export Plug-In  -->
<!DOCTYPE svg PUBLIC "-//W3C//DTD SVG 1.1//EN" "http://www.w3.org/Graphics/SVG/1.1/DTD/svg11.dtd" [
	<!ENTITY ns_flows "http://ns.adobe.com/Flows/1.0/">
]>
<svg version="1.1"
	 xmlns="http://www.w3.org/2000/svg" xmlns:xlink="http://www.w3.org/1999/xlink" xmlns:a="http://ns.adobe.com/AdobeSVGViewerExtensions/3.0/"
	 x="0px" y="0px" width="709px" height="709px" viewBox="-19.318 -32.2 709 709" enable-background="new -19.318 -32.2 709 709"
	 xml:space="preserve">
<defs>
</defs>
<path fill-rule="evenodd" clip-rule="evenodd" d="M564.899,14.991c16.547,94.548,16.547,256.15,0,350.701
	c-29.949,20.148-94.535,5.663-140.278,10.018c-41.168,35.654-28.093,125.551-80.157,150.301
	c-62.987-13.839-57.041-96.604-80.164-150.301c-48.833-4.606-117.367,10.488-150.299-10.018
	C79.409,293.325,90.08,122.515,103.983,35.031C197.489-25.592,438.757,9.75,564.899,14.991z M124.019,35.031
	c6.139,104.083-12.621,233.064,10.022,320.638c46.761,0,93.521,0,140.281,0c22.733,50.745,30.735,116.223,70.142,150.3
	c25.265-48.211,28.954-118.003,70.136-150.3c43.418,0,86.841,0,130.262,0c22.641-87.574,3.883-216.556,10.018-320.638
	C433.934,18.437,244.964,18.437,124.019,35.031z"/>
<path fill-rule="evenodd" clip-rule="evenodd" d="M404.581,175.311c-44.896,52.556-126.719,27.152-140.281-20.04
	C231.253,40.283,443.592-6.149,404.581,175.311z M384.538,165.291C369.578-71.906,193.183,255.942,384.538,165.291L384.538,165.291z
	"/>
<path fill-rule="evenodd" clip-rule="evenodd" d="M53.881,75.11c32.42-3.957,32.42,114.179,0,110.221
	C50.202,167.334,50.202,93.108,53.881,75.11z"/>
<path fill-rule="evenodd" clip-rule="evenodd" d="M414.599,235.431c15.067,28.351,40.52,46.321,40.082,90.177
	c-36.109-3.967-30.577-49.584-50.101-70.138c-40.079,0-80.161,0-120.239,0c-32.62,7.461-30.47,49.69-50.1,70.138
	C184.157,263.705,311.73,210.707,414.599,235.431z"/>
<path fill-rule="evenodd" clip-rule="evenodd" d="M604.98,325.608c53.74,43.318-32.78,112.03-100.202,100.202
	C512.676,377.103,614.494,414.707,604.98,325.608z"/>
<path fill-rule="evenodd" clip-rule="evenodd" d="M93.961,465.891c8.029,38.09-47.379,12.74-70.139,20.041
	c0,46.757,0,93.518,0,140.276c134.107,3.586,457.244-2.076,621.239,0c23.089-27.01,3.556-96.643,10.021-140.276
	c-71.138-12.365-192.367,25.36-230.462-20.041c80.157,0,160.318,0,240.479,0c16.184,40.026,16.184,140.332,0,180.359
	c-194.372,16.323-457.013,16.893-651.299,0C0.484,584.155-31.954,421.616,93.961,465.891z"/>
<path fill-rule="evenodd" clip-rule="evenodd" d="M254.281,465.891c6.118,39.517-55.012,11.786-80.16,20.041
	C168,446.412,229.135,474.144,254.281,465.891z"/>
</svg>
