<?xml version="1.0" encoding="utf-8"?>
<!-- Generator: Adobe Illustrator 15.0.0, SVG Export Plug-In  -->
<!DOCTYPE svg PUBLIC "-//W3C//DTD SVG 1.1//EN" "http://www.w3.org/Graphics/SVG/1.1/DTD/svg11.dtd" [
	<!ENTITY ns_flows "http://ns.adobe.com/Flows/1.0/">
]>
<svg version="1.1"
	 xmlns="http://www.w3.org/2000/svg" xmlns:xlink="http://www.w3.org/1999/xlink" xmlns:a="http://ns.adobe.com/AdobeSVGViewerExtensions/3.0/"
	 x="0px" y="0px" width="709px" height="709px" viewBox="-22.295 -47.089 709 709" enable-background="new -22.295 -47.089 709 709"
	 xml:space="preserve">
<defs>
</defs>
<path fill-rule="evenodd" clip-rule="evenodd" d="M545.922,0c86.21,1.125,127.485,47.182,131.002,130.999
	C646.72,73.868,605.918,27.338,545.922,0z"/>
<path fill-rule="evenodd" clip-rule="evenodd" d="M630.137,130.999c-29.938-23.085-38.428-67.618-84.215-74.857
	C561.826,21.931,645.313,72.702,630.137,130.999z"/>
<path fill-rule="evenodd" clip-rule="evenodd" d="M583.354,102.928c13.671,59.548,16.504,174.853,0,233.927
	c-40.722-40.375-8.364-153.829-18.714-224.57c-156.627-15.824-376.62-15.146-533.353,0c-21.25,91.034-3.547,221.022-9.356,327.497
	c66.441,20.89,170.853,3.811,252.641,9.354c-47.743,42.714-173.961,6.942-252.641,18.717
	c20.635,80.673,145.442,46.785,233.925,46.785c97.076,0,200.761,0,280.709,0c43.447,9.135,12.698-55.922,56.144-46.785
	c13.865,104.311-127.469,53.432-205.853,65.499c1.005,48.897,33.755,66.054,56.143,93.568c-99.809,0-199.618,0-299.426,0
	c26.351-23.55,58.203-41.606,65.5-84.211c-43.805-21.694-127.774-3.226-187.142-9.357c-34.704-106.128-20.535-309.44-9.355-430.424
	C162.201,72.211,433.726,72.211,583.354,102.928z M209.073,608.205c59.258,0,118.521,0,177.783,0
	c2.154-36.465-20.107-48.514-28.072-74.854C278.613,528.038,199.785,524.063,209.073,608.205z"/>
<path fill-rule="evenodd" clip-rule="evenodd" d="M377.498,140.356c-32.114,41.347-59.082,21.489-93.569,46.785
	C73.776,341.267,469.167,572.613,489.781,280.711c31.441-9.607,14.563,29.1,18.718,46.785
	c43.062,56.745,166.352,33.265,168.426,130.998c-68.414,16.949-133.708-37.577-187.144-65.5
	C280.813,615.417,55.161,143.228,377.498,140.356z M489.781,374.282c53.772,27.325,107.95,54.238,168.428,74.854
	C635.18,400.264,525.91,348.926,489.781,374.282z"/>
<path fill-rule="evenodd" clip-rule="evenodd" d="M50.003,168.428c38.754-1.325,9.743,65.111,18.714,93.569
	C29.963,263.322,58.97,196.887,50.003,168.428z"/>
<path fill-rule="evenodd" clip-rule="evenodd" d="M405.568,233.927c-4.249,39.415-44.253,43.077-56.141,74.855
	c-32.854,1.663-30.774-31.605-56.145-37.427c-27.67,34.502,29.841,46.353,37.432,74.854c63.663-9.553,80.323-111.036,140.354-93.567
	c-37.33,43.762-81.39,80.8-121.642,121.641c-42.829-19.552-74.018-50.741-93.571-93.571c33.72-37.785,50.497-37.785,84.216,0
	C368.662,271.875,369.398,235.179,405.568,233.927z"/>
</svg>
