<?xml version="1.0" encoding="utf-8"?>
<!-- Generator: Adobe Illustrator 15.0.0, SVG Export Plug-In  -->
<!DOCTYPE svg PUBLIC "-//W3C//DTD SVG 1.1//EN" "http://www.w3.org/Graphics/SVG/1.1/DTD/svg11.dtd" [
	<!ENTITY ns_flows "http://ns.adobe.com/Flows/1.0/">
]>
<svg version="1.1"
	 xmlns="http://www.w3.org/2000/svg" xmlns:xlink="http://www.w3.org/1999/xlink" xmlns:a="http://ns.adobe.com/AdobeSVGViewerExtensions/3.0/"
	 x="0px" y="0px" width="709px" height="709px" viewBox="-42.615 -47.682 709 709" enable-background="new -42.615 -47.682 709 709"
	 xml:space="preserve">
<defs>
</defs>
<path fill-rule="evenodd" clip-rule="evenodd" fill="#FFFFFF" d="M145.644,573.478c23.894,0,47.786,0,71.683,0
	c0,11.946,0,23.894,0,35.842c-23.897,0-47.79,0-71.683,0C145.644,597.372,145.644,585.424,145.644,573.478z"/>
<path fill-rule="evenodd" clip-rule="evenodd" d="M109.803,215.054c19.063-40.671,112.646-6.822,161.289-17.921
	C252.021,237.805,158.438,203.955,109.803,215.054z"/>
<path fill-rule="evenodd" clip-rule="evenodd" fill="#FFFFFF" d="M504.063,215.054c17.919,0,35.84,0,53.765,0
	c0,11.946,0,23.896,0,35.842c-17.925,0-35.846,0-53.765,0C504.063,238.949,504.063,227,504.063,215.054z"/>
<path fill-rule="evenodd" clip-rule="evenodd" fill="#FFFFFF" d="M575.745,215.054c17.928,0,35.84,0,53.768,0
	c0,11.946,0,23.896,0,35.842c-17.928,0-35.84,0-53.768,0C575.745,238.949,575.745,227,575.745,215.054z"/>
<path fill-rule="evenodd" clip-rule="evenodd" d="M109.803,250.896c2.231-39.583,76.015-7.61,107.524-17.922
	C215.089,272.557,141.304,240.584,109.803,250.896z"/>
<path fill-rule="evenodd" clip-rule="evenodd" d="M432.377,268.817c-9.48,14.412-18.693,29.092-17.919,53.761
	C341.16,309.702,367.522,216.566,432.377,268.817z"/>
<path fill-rule="evenodd" clip-rule="evenodd" d="M181.485,268.817C142.122,323.556,66.7,248.132,181.485,268.817L181.485,268.817z"
	/>
<path fill-rule="evenodd" clip-rule="evenodd" fill="#FFFFFF" d="M20.19,358.423c52.396-56.989-28.322,170.665,53.763,143.369
	C3.59,576.754,19.431,413.98,20.19,358.423z"/>
<path fill-rule="evenodd" clip-rule="evenodd" fill="#FFFFFF" d="M324.851,358.423c44.563-53.881,61.244,134.54,35.844,161.289
	c-22.137,23.313-433.57-12.108-143.368-17.92c30.509-0.611,63.301,0.411,107.524,0C354.427,493.828,354.427,366.388,324.851,358.423
	z"/>
<path fill-rule="evenodd" clip-rule="evenodd" fill="#FFFFFF" d="M56.033,376.345c89.61,0,179.215,0,268.817,0
	c0,35.841,0,71.684,0,107.525c-89.602,0-179.207,0-268.817,0C56.033,448.029,56.033,412.186,56.033,376.345z"/>
<path fill-rule="evenodd" clip-rule="evenodd" fill="#FFFFFF" d="M20.19,555.555c72.012-41.488,220.784-6.218,322.583-17.922
	C270.762,579.125,121.99,543.853,20.19,555.555z"/>
<path fill-rule="evenodd" clip-rule="evenodd" fill="#FFFFFF" d="M629.513,35.841c0,53.762,0,107.529,0,161.292
	c-41.819,0-83.63,0-125.449,0c0-47.791,0-95.58,0-143.371C566.229,68.137,572.945,27.071,629.513,35.841z"/>
<path fill-rule="evenodd" clip-rule="evenodd" fill="#FFFFFF" d="M38.113,89.604c149.342,0,298.69,0,448.026,0
	c-26.762,28.887,15.457,89.856,0,161.292c-3.016,38.863,63.566,8.119,89.605,17.921c0,77.657,0,155.315,0,232.975
	c-113.395-11.045-83.73-11.045-197.129,0c0-59.738,0-119.476,0-179.214c-98.608-14.189-202.807,7.612-340.503,0
	C38.113,244.92,38.113,167.263,38.113,89.604z M271.092,197.133c-48.643,11.099-142.227-22.75-161.289,17.921
	C158.438,203.955,252.021,237.805,271.092,197.133z M217.327,232.974c-31.509,10.312-105.292-21.662-107.524,17.922
	C141.304,240.584,215.089,272.557,217.327,232.974z M414.458,322.579c-0.774-24.669,8.438-39.349,17.919-53.761
	C367.522,216.566,341.16,309.702,414.458,322.579z M181.485,268.817C66.7,248.132,142.122,323.556,181.485,268.817L181.485,268.817z
	"/>
<path fill-rule="evenodd" clip-rule="evenodd" d="M486.14,0c53.764,0,107.533,0,161.296,0c0,89.604,0,179.212,0,268.817
	c-108.9-7.342-29.646,173.463-53.763,250.895c-65.714,0-131.425,0-197.136,0c-13.912,45.83-51.499,67.977-125.445,53.766
	c-53.675,11.788,17.131,38.307,0,71.684c-86.705,11.443-126.739-23.684-179.217,0c-9.867-39.734,34.222-25.518,35.842-53.762
	c-7.713-40.074-88.321-7.262-125.446-17.922C-10.079,387.884,32.546,257.274,20.19,71.684
	C169.659,59.859,366.506,95.417,486.14,53.762C486.14,35.841,486.14,17.92,486.14,0z M504.063,53.762c0,47.791,0,95.58,0,143.371
	c41.819,0,83.63,0,125.449,0c0-53.763,0-107.529,0-161.292C572.945,27.071,566.229,68.137,504.063,53.762z M38.113,322.579
	c137.696,7.612,241.895-14.189,340.503,0c0,59.738,0,119.476,0,179.214c113.398-11.045,83.734-11.045,197.129,0
	c0-77.66,0-155.318,0-232.975c-26.039-9.803-92.621,20.941-89.605-17.921c15.457-71.436-26.762-132.405,0-161.292
	c-149.336,0-298.684,0-448.026,0C38.113,167.263,38.113,244.92,38.113,322.579z M504.063,250.896c17.919,0,35.84,0,53.765,0
	c0-11.947,0-23.896,0-35.842c-17.925,0-35.846,0-53.765,0C504.063,227,504.063,238.949,504.063,250.896z M575.745,250.896
	c17.928,0,35.84,0,53.768,0c0-11.947,0-23.896,0-35.842c-17.928,0-35.84,0-53.768,0C575.745,227,575.745,238.949,575.745,250.896z
	 M73.953,501.792c-82.084,27.296-1.367-200.358-53.763-143.369C19.431,413.98,3.59,576.754,73.953,501.792z M324.851,501.792
	c-44.223,0.411-77.015-0.611-107.524,0c-290.203,5.812,121.231,41.233,143.368,17.92c25.4-26.749,8.719-215.17-35.844-161.289
	C354.427,366.388,354.427,493.828,324.851,501.792z M56.033,483.871c89.61,0,179.215,0,268.817,0c0-35.842,0-71.685,0-107.525
	c-89.602,0-179.207,0-268.817,0C56.033,412.186,56.033,448.029,56.033,483.871z M342.773,537.633
	C240.975,549.337,92.203,514.067,20.19,555.555C121.99,543.853,270.762,579.125,342.773,537.633z M145.644,609.32
	c23.894,0,47.786,0,71.683,0c0-11.948,0-23.896,0-35.842c-23.897,0-47.79,0-71.683,0
	C145.644,585.424,145.644,597.372,145.644,609.32z"/>
</svg>
