<?xml version="1.0" encoding="utf-8"?>
<!-- Generator: Adobe Illustrator 15.0.0, SVG Export Plug-In  -->
<!DOCTYPE svg PUBLIC "-//W3C//DTD SVG 1.1//EN" "http://www.w3.org/Graphics/SVG/1.1/DTD/svg11.dtd" [
	<!ENTITY ns_flows "http://ns.adobe.com/Flows/1.0/">
]>
<svg version="1.1"
	 xmlns="http://www.w3.org/2000/svg" xmlns:xlink="http://www.w3.org/1999/xlink" xmlns:a="http://ns.adobe.com/AdobeSVGViewerExtensions/3.0/"
	 x="0px" y="0px" width="709px" height="709px" viewBox="-37.958 -50.601 709 709" enable-background="new -37.958 -50.601 709 709"
	 xml:space="preserve">
<defs>
</defs>
<path fill-rule="evenodd" clip-rule="evenodd" d="M0,0c210.912,0,421.826,0,632.745,0c-0.005,60.257,0,120.521,0,180.78
	c-210.919,0-421.833,0-632.745,0C0,120.519,0,60.26,0,0z M18.079,162.702c198.865,0,397.725,0,596.589,0
	c0-48.207,0-96.417,0-144.625c-198.864,0-397.725,0-596.589,0C18.079,66.284,18.079,114.495,18.079,162.702z"/>
<path fill-rule="evenodd" clip-rule="evenodd" d="M36.158,54.233c24.109,0,48.208,0,72.311,0c0,24.106,0,48.208,0,72.313
	C46.228,140.584,22.119,116.482,36.158,54.233z"/>
<path fill-rule="evenodd" clip-rule="evenodd" d="M307.332,90.389c12.055,0,24.106,0,36.16,0c0,12.052,0,24.106,0,36.157
	c-12.054,0-24.104,0-36.16,0C307.332,114.495,307.332,102.441,307.332,90.389z"/>
<path fill-rule="evenodd" clip-rule="evenodd" d="M379.646,90.389c12.054,0,24.108,0,36.158,0c0,12.052,0,24.106,0,36.157
	c-12.05,0-24.104,0-36.158,0C379.646,114.495,379.646,102.441,379.646,90.389z"/>
<path fill-rule="evenodd" clip-rule="evenodd" d="M0,216.939c210.912,0,421.826,0,632.745,0c-0.005,60.259,0,120.52,0,180.781
	c-210.919,0-421.833,0-632.745,0C0,337.459,0,277.201,0,216.939z M18.079,379.643c198.865,0,397.725,0,596.589,0
	c0-42.184,0-84.364,0-126.548c-163.968-40.926-402.824-6.953-596.589-18.077C18.079,283.225,18.079,331.436,18.079,379.643z"/>
<path fill-rule="evenodd" clip-rule="evenodd" d="M36.158,271.174c24.109,0,48.208,0,72.311,0c0,24.105,0,48.207,0,72.313
	C46.228,357.524,22.119,333.423,36.158,271.174z"/>
<path fill-rule="evenodd" clip-rule="evenodd" d="M0,433.879c210.912,0,421.826,0,632.745,0c-0.005,60.258,0,120.522,0,180.781
	c-233.134,11.699-406.537,11.077-632.745,0C0,554.396,0,494.141,0,433.879z M18.079,470.035c0,42.184,0,84.366,0,126.546
	c198.865,0,397.725,0,596.589,0c0-42.185,0-84.362,0-126.546C343.492,465.609,193.851,457.556,18.079,470.035z"/>
<path fill-rule="evenodd" clip-rule="evenodd" d="M36.158,488.114c24.109,0,48.208,0,72.311,0
	c5.772,41.922-2.901,69.406-18.071,90.389C33.914,586.779,32.599,539.88,36.158,488.114z"/>
<path fill-rule="evenodd" clip-rule="evenodd" fill="#FFFFFF" d="M18.079,18.077c198.865,0,397.725,0,596.589,0
	c0,48.208,0,96.418,0,144.625c-198.864,0-397.725,0-596.589,0C18.079,114.495,18.079,66.284,18.079,18.077z M108.469,126.546
	c0-24.105,0-48.207,0-72.313c-24.102,0-48.202,0-72.311,0C22.119,116.482,46.228,140.584,108.469,126.546z M307.332,126.546
	c12.055,0,24.106,0,36.16,0c0-12.051,0-24.105,0-36.157c-12.054,0-24.104,0-36.16,0
	C307.332,102.441,307.332,114.495,307.332,126.546z M379.646,126.546c12.054,0,24.108,0,36.158,0c0-12.051,0-24.105,0-36.157
	c-12.05,0-24.104,0-36.158,0C379.646,102.441,379.646,114.495,379.646,126.546z"/>
<path fill-rule="evenodd" clip-rule="evenodd" fill="#FFFFFF" d="M18.079,235.018c193.765,11.124,432.622-22.849,596.589,18.077
	c0,42.184,0,84.364,0,126.548c-198.864,0-397.725,0-596.589,0C18.079,331.436,18.079,283.225,18.079,235.018z M108.469,343.486
	c0-24.105,0-48.208,0-72.313c-24.102,0-48.202,0-72.311,0C22.119,333.423,46.228,357.524,108.469,343.486z"/>
<path fill-rule="evenodd" clip-rule="evenodd" fill="#FFFFFF" d="M614.668,470.035c0,42.184,0,84.361,0,126.546
	c-198.864,0-397.725,0-596.589,0c0-42.18,0-84.362,0-126.546C193.851,457.556,343.492,465.609,614.668,470.035z M90.398,578.503
	c15.169-20.982,23.843-48.467,18.071-90.389c-24.102,0-48.202,0-72.311,0C32.599,539.88,33.914,586.779,90.398,578.503z"/>
</svg>
