<?xml version="1.0" encoding="utf-8"?>
<!-- Generator: Adobe Illustrator 15.0.0, SVG Export Plug-In  -->
<!DOCTYPE svg PUBLIC "-//W3C//DTD SVG 1.1//EN" "http://www.w3.org/Graphics/SVG/1.1/DTD/svg11.dtd" [
	<!ENTITY ns_flows "http://ns.adobe.com/Flows/1.0/">
]>
<svg version="1.1"
	 xmlns="http://www.w3.org/2000/svg" xmlns:xlink="http://www.w3.org/1999/xlink" xmlns:a="http://ns.adobe.com/AdobeSVGViewerExtensions/3.0/"
	 x="0px" y="0px" width="709px" height="709px" viewBox="-108.091 -15.155 709 709"
	 enable-background="new -108.091 -15.155 709 709" xml:space="preserve">
<defs>
</defs>
<path fill-rule="evenodd" clip-rule="evenodd" d="M384.053,105.941c188.103-35.658,168.992,280.772,18.503,240.542
	c114.683-11.899,145.166-218.537,0-222.039c-24.533-2.948,8.654,51.828-27.755,37.007C394.62-10.969,150.97-24.066,125.009,115.193
	c-7.144,41.066,30.602,37.244,46.259,55.509c-56.423-5.088-142.834-21.616-157.277,55.509
	c-10.157,54.249,22.499,97.971,92.514,111.02c-112.26,69.336-168.951-218.485,0-194.284
	C91.173-28.105,366.206-52.044,384.053,105.941z"/>
<path fill-rule="evenodd" clip-rule="evenodd" d="M245.281,41.181c-18.939,30.403-50.548,48.136-83.267,64.76
	C174.065,68.649,199.034,44.275,245.281,41.181z"/>
<path fill-rule="evenodd" clip-rule="evenodd" d="M300.79,207.708c-51.227-31.941-15.133,93.079-37.006,120.271
	c-23.687,7.609-66.672,43.732-92.516,18.505c50.17-23.845,104.233-43.792,83.266-138.775c-6.09-27.708-19.775,8.848-37.011,0
	C223.859,150.967,301.249,132.982,300.79,207.708z"/>
<path fill-rule="evenodd" clip-rule="evenodd" d="M337.795,327.979c-36.53,34.396-87.113,54.743-64.765,148.025
	c4.044,13.729,11.844-3.65,27.759,0c-11.931,62.336-71.335,62.336-83.267,0c16.599-1.177,19.515,11.325,37.011,9.251
	C249.284,399.826,248.533,318.896,337.795,327.979z"/>
<path fill-rule="evenodd" clip-rule="evenodd" d="M50.996,374.237c39.491,3.684,8.822,77.527,18.504,111.018
	C30.011,481.569,60.68,407.726,50.996,374.237z"/>
<path fill-rule="evenodd" clip-rule="evenodd" d="M226.777,420.495c-33.923,0-67.845,0-101.768,0
	c-19.654,38.938-4.49,112.697-9.25,166.525c92.513,0,185.03,0,277.545,0c19.766-49.984,16.813-124.241,9.252-157.274
	c-18.147-25.025-91.991,5.646-111.019-18.505c21.895-21.279,83.034-3.313,120.271-9.249c45.538,37.728-19.75,186.278,55.51,194.281
	c22.423,91.204-117.398,64.761-203.534,64.761c-82.93,0-227.874,26.271-212.788-55.509c-9.497-31.085,28.773-14.401,46.259-18.505
	C68.246,470.741,119.253,338.89,226.777,420.495z M69.5,624.027c-0.031,9.282,7.495,11.01,9.254,18.503
	c115.942-16.66,299.684,34.476,370.059-27.755C346.703,605.244,156.293,587.421,69.5,624.027z"/>
<path fill-rule="evenodd" clip-rule="evenodd" d="M458.065,438.997c14.128,0.149,20.285,68.561-9.252,55.511
	C447.591,471.7,447.413,449.931,458.065,438.997z"/>
</svg>
