<?xml version="1.0" encoding="utf-8"?>
<!-- Generator: Adobe Illustrator 15.0.0, SVG Export Plug-In  -->
<!DOCTYPE svg PUBLIC "-//W3C//DTD SVG 1.1//EN" "http://www.w3.org/Graphics/SVG/1.1/DTD/svg11.dtd" [
	<!ENTITY ns_flows "http://ns.adobe.com/Flows/1.0/">
]>
<svg version="1.1"
	 xmlns="http://www.w3.org/2000/svg" xmlns:xlink="http://www.w3.org/1999/xlink" xmlns:a="http://ns.adobe.com/AdobeSVGViewerExtensions/3.0/"
	 x="0px" y="0px" width="709px" height="709px" viewBox="-3.513 -105.25 709 709" enable-background="new -3.513 -105.25 709 709"
	 xml:space="preserve">
<defs>
</defs>
<path fill-rule="evenodd" clip-rule="evenodd" fill="#5A6EB3" d="M551.992,94.614c-16.242,22.046-50.179,26.399-91.895,22.974
	c0-15.316,0-30.63,0-45.947c32.467-5.823,37.388-39.191,80.407-34.46c1.215,6.444,6.376,8.941,11.487,11.487
	C551.992,63.982,551.992,79.299,551.992,94.614z"/>
<path fill-rule="evenodd" clip-rule="evenodd" fill="#C4CFEB" d="M548.104,74.99c1.826,0,3.65,0,5.476,0c0,1.826,0,3.651,0,5.477
	c0,62.061,0,124.122,0,186.185c-1.825,0-3.649,0-5.476,0C548.104,202.765,548.104,138.877,548.104,74.99z"/>
<path fill-rule="evenodd" clip-rule="evenodd" fill="#F3B236" d="M126.98,140.562c0.48-10.151,10.05-28.501,0-40.205
	c14.078-7.633,26.012,12.766,45.947-5.744c-15.299,12.863,8.121,28.778-5.744,40.204
	C165.938,165.276,139.216,155.379,126.98,140.562z"/>
<path fill-rule="evenodd" clip-rule="evenodd" fill="#F3B236" d="M310.769,215.225c-0.642-14.673-10.529-20.102-17.23-28.716
	c19.863-21.335,29.545,16.074,40.205,22.973c27.506,2.617,10.703-39.072,45.947-28.717c-14.568,23.495-22.226,36.97,0,57.434
	c-19.862-4.546-24.248,6.386-34.46,11.487c-3.451,22.596,39.75-1.461,34.46,22.975c-26.475-5.416-37.896,4.223-40.204,22.973
	c-13.455-9.519-13.347-32.6-45.948-22.973c-5.897-19.298,17.863-8.941,28.717-11.486c4.011-21.239-9.087-25.374-28.717-22.976
	c-8.929-20.416,19.507-3.467,17.23-17.23C310.769,219.055,310.769,217.14,310.769,215.225z"/>
<path fill-rule="evenodd" clip-rule="evenodd" fill="#C4CFEB" d="M591.911,233.795C534.755,216.826,626.777,193.063,591.911,233.795
	L591.911,233.795z"/>
<path fill-rule="evenodd" clip-rule="evenodd" fill="#F3B236" d="M362.459,381.785c0-5.744,0-11.486,0-17.23
	c59.408-35.266,133.682,17.68,178.046-17.229c-7.963-13.097-39.977-2.141-57.433-5.743c-9.854-38.57,44.142-13.291,57.433-28.719
	c-1.945-22.942-47.122-2.651-57.433-17.229c18.582-26.542,86.605-41.453,114.869-22.973c-6.238,63.936,5.024,107.436-5.746,172.303
	c-23.299,6.213-31.511-2.239-63.177,0c2.029-7.544,10.112-9.034,11.486-17.231c-7.963-13.096-39.977-2.141-57.433-5.742
	c-7.317,1.298-7.526,17.141,0,17.229c-13.593,13.211-51.548,2.056-74.666,5.744c4.462-5.112,6.175-12.972,5.744-22.974
	c-15.588-3.559-45.579,7.291-51.691-5.744c1.723-25.082,52.783-0.822,57.436-22.974
	C412.896,377.297,384.616,382.602,362.459,381.785z M477.327,387.529c-18.701,17.847,65.637,30.619,63.178,0
	C525.38,382.003,491.305,376.424,477.327,387.529z"/>
<path fill-rule="evenodd" clip-rule="evenodd" fill="#C4CFEB" d="M75.29,266.917c8.407,4.994,18.205,8.598,17.229,22.973
	c-11.412,0.074-7.302,15.67-22.973,11.486C51.883,286.261,65.678,282.033,75.29,266.917z"/>
<path fill-rule="evenodd" clip-rule="evenodd" fill="#5A6EB3" d="M126.98,433.475c-10.63-69.287,44.662-79.2,97.637-68.921
	c0,9.573,0,19.145,0,28.718c-2.677,31.783-38.76,30.161-45.946,57.435C149.537,446.331,145.125,450.891,126.98,433.475z"/>
<path fill-rule="evenodd" clip-rule="evenodd" fill="#F5DC9A" d="M540.505,387.529c2.459,30.619-81.879,17.847-63.178,0
	C491.305,376.424,525.38,382.003,540.505,387.529z"/>
<path fill-rule="evenodd" clip-rule="evenodd" fill="#EBF1FA" d="M506.044,8.462c-20.918-1.775-37.374,0.913-51.69,5.744
	c-8.835,19.88-5.075,52.357-5.742,80.407c0,5.744,0,11.487,0,17.23c-92.282-0.809-113.778,7.011-201.02,0
	C220.193-5.896,10.276,39.961,69.546,175.021c9.62,21.922,35.764,30.778,45.946,57.435c23.976,62.765-7.553,112.051,5.744,155.073
	c0,1.914,0,3.829,0,5.743c-18.916,55.359,23.382,99.092,91.895,86.15c29.006-11.197,22.371-58.037,22.974-97.638
	c38.289,0,76.579,0,114.869,0c-2.239,31.666,6.213,39.877,0,63.179c60.559,25.59,167.593,4.708,246.967,11.486
	c-2.066-51.822,38.953-220.013-34.462-201.019c0-65.094,0-130.186,0-195.276c13.234,15.481,2.04,55.394,5.742,80.407
	c103.046,8.074,136.062,104.355,132.1,189.532c-9.445,203.058-301.103,186.771-453.729,120.612
	c-11.773,9.285-14.48,27.638-22.974,40.202c-31.992,11.65-64.289,2.738-91.895-5.743c-11.533-57.387-79.136-58.706-109.125-97.637
	c-1.438-24.756,10.815,3.795,17.231,5.743c11.239-37.82,12.47-106.298-22.974-103.382c1.308-24.866,39.469-19.227,17.23-51.691
	c-6.921,46.012-31.67-6.14-28.717,57.435c-16.549-0.287,4.965-54.2,0-80.408c20.598-2.097,21.042-15.421,40.203-5.743
	C-12.511,91.28,157.182-28.055,253.335,60.155c16.094-5.641-8.34-15.325,5.743-22.975c61.554,3.538,120.874,9.31,178.046,17.23
	c10.159-10.9,5.344-36.775,17.229-45.948C474.756,2.288,487.422-7.008,506.044,8.462z M603.684,220.969
	C640.252,178.249,543.736,203.171,603.684,220.969L603.684,220.969z M69.546,301.376c15.67,4.184,11.561-11.412,22.973-11.486
	c0.975-14.375-8.822-17.979-17.229-22.973C65.678,282.033,51.883,286.261,69.546,301.376z"/>
<path fill-rule="evenodd" clip-rule="evenodd" fill="#EBF1FA" d="M511.789,8.462c16.798-7.017,51.506,17.259,51.69,45.948
	c-1.915,0-3.829,0-5.743,0c1.055-4.885-2.24-5.418-5.744-5.743c-1.501-23.388-23.016-26.76-40.203-34.461
	C511.789,12.292,511.789,10.377,511.789,8.462z"/>
<path fill-rule="evenodd" clip-rule="evenodd" fill="#C4CFEB" d="M448.611,94.614c0.667-28.05-3.093-60.527,5.742-80.407
	c14.316-4.831,30.772-7.519,51.69-5.744c1.916,0,3.83,0,5.745,0c0,1.915,0,3.83,0,5.744c-23.925-0.951-47.935-1.987-57.436,11.487
	c0,22.974,0,45.946,0,68.92C452.439,94.614,450.526,94.614,448.611,94.614z"/>
<path fill-rule="evenodd" clip-rule="evenodd" fill="#7A94CB" d="M454.354,94.614c0-22.974,0-45.946,0-68.92
	c9.501-13.475,33.511-12.438,57.436-11.487c17.188,7.701,38.702,11.073,40.203,34.461c-5.111-2.546-10.272-5.043-11.487-11.487
	c-43.02-4.731-47.94,28.637-80.407,34.46c0,15.317,0,30.631,0,45.947c41.716,3.426,75.652-0.927,91.895-22.974
	c-5.509,32.094-66.261,35.442-97.639,22.974C454.354,109.929,454.354,102.271,454.354,94.614z"/>
<path fill-rule="evenodd" clip-rule="evenodd" fill="#C4CFEB" d="M121.236,393.272c3.417,11.897-7.098,37.729,5.744,40.203
	c0.144,37.302,97.531,59.943,97.637,11.488c13.21-13.593,2.057-51.55,5.743-74.665c39.688-16.91,74.477,3.02,109.125-5.744
	c21.869-5.53,32.034-50.748,63.178-28.716c4.884-1.058,5.417,2.239,5.742,5.743c-40.414-7.871-57.652,7.437-57.432,40.203
	c-38.29,0-76.58,0-114.869,0c-0.603,39.601,6.033,86.44-22.974,97.638C144.618,492.364,102.321,448.631,121.236,393.272z"/>
<path fill-rule="evenodd" clip-rule="evenodd" fill="#C4CFEB" d="M448.611,111.844c-40.032,22.467-145.831,8.32-212.506,5.744
	c-5.124-17.85-5.91-40.036-28.718-40.203c-7.224,1.42-5.792,11.419,0,11.486c-2.351,13.839,10.49,12.485,5.744,28.717
	C197.384,6.31,20.246,84.062,98.263,175.021c-7.066-6.415-11.795-5-11.486,5.744c48.586,28.022,47.737,136.013,34.459,206.764
	c-13.297-43.021,18.231-92.308-5.744-155.073c-10.182-26.657-36.326-35.513-45.946-57.435
	C10.276,39.961,220.193-5.896,247.592,111.844C334.833,118.854,356.329,111.035,448.611,111.844z"/>
<path fill-rule="evenodd" clip-rule="evenodd" fill="#EBF1FA" d="M98.263,175.021C20.246,84.062,197.384,6.31,213.131,117.587
	c0,1.915,0,3.829,0,5.743c-0.75,26.228-31.089,52.916-28.718,63.178c-0.158,5.586-7.029,4.457-11.486,5.743
	c-23.545,0.574-47.076,1.128-63.177-5.743C107.205,181.396,104.705,176.236,98.263,175.021z M184.413,94.614
	c5.763-0.019,6.836,4.652,11.488,5.744c-50.394-97.538-163.124,44.559-80.409,63.178c0-3.829,0-7.659,0-11.487
	c20.52,0.54,20.722,21.397,40.204,22.973c12.998-4.233,12.57-21.891,28.717-22.973C190.717,126.507,170.532,110.184,184.413,94.614z
	"/>
<path fill-rule="evenodd" clip-rule="evenodd" fill="#93A9D8" d="M448.611,111.844c0-5.743,0-11.486,0-17.23
	c1.915,0,3.828,0,5.742,0c0,7.658,0,15.315,0,22.974c31.378,12.468,92.13,9.121,97.639-22.974c0-15.314,0-30.632,0-45.946
	c3.504,0.325,6.799,0.858,5.744,5.743c0,67.005,0,134.013,0,201.021c-42.596-0.478-94.321-10.084-80.409,45.945
	c-13.095-7.962-2.141-39.978-5.742-57.435c19.881,8.837,52.358,5.078,80.407,5.744c0-34.461,0-68.921,0-103.381
	c-28.503,5.958-28.356,40.563-51.691,51.691c-18.632-9.956,14.921-15.05,5.743-34.461c-15.192,26.155-55.497,58.362-86.149,86.151
	c-15.695-1.104-8.829-37.207-28.718-17.23c1.043-12.529-4.701-18.273-17.229-17.231c2.988-8.498,8.499-14.475,11.486-22.973
	c0-3.829,0-7.658,0-11.487c-1.3-8.273-17.142-2.003-17.229-11.487c-13.02,6.127-20.87,17.421-22.974,34.461
	c-28.135-0.582-17.524-39.911-57.434-28.717c-2.205,23.264,15.684,26.436,22.973,40.204c0,1.915,0,3.83,0,5.744
	c-9.095,0.478-21.907-2.761-22.973,5.743c-1.915,0-3.83,0-5.743,0c10.114,23.395-9.177,42.54,11.486,57.435
	c1.439,19.211,28.767,31.539,11.488,51.691c18.067,2.87,22.451-12.521,34.46,0c2.684,12.255-8.205,10.938-17.23,11.486
	c12.79,19.714,28.163-5.755,28.718-17.23c15.586,3.558,45.579-7.292,51.69,5.744c-31.144-22.032-41.309,23.186-63.178,28.716
	c-34.648,8.764-69.437-11.166-109.125,5.744c-3.686,23.115,7.467,61.072-5.743,74.665c0-17.231,0-34.462,0-51.691
	c0-9.573,0-19.145,0-28.718c-52.976-10.279-108.267-0.366-97.637,68.921c-12.842-2.474-2.327-28.306-5.744-40.203
	c0-1.914,0-3.829,0-5.743c13.277-70.751,14.127-178.742-34.459-206.764c-0.309-10.743,4.42-12.159,11.486-5.744
	c6.442,1.214,8.942,6.374,11.487,11.487c-4.652-1.092-5.726-5.761-11.487-5.744c-0.299,22.478,53.368,43.43,86.15,22.974
	c1.758,13.246-16.593,6.38-17.229,17.23c1.093,4.652,5.762,5.726,5.744,11.487c25.13,2.157,27.612-18.336,34.46-34.46
	c-10.85,4.301-3.985,17.142-17.23,5.743c12.549-25.161,40.369-0.4,51.691-22.974c-1.69-13.401-15.541-13.401-17.231,0
	c-0.903-18.01,13.699-97.029-17.23-91.895c-5.792-0.066-7.224-10.065,0-11.486c22.808,0.167,23.594,22.354,28.718,40.203
	C302.781,120.164,408.579,134.311,448.611,111.844z"/>
<path fill-rule="evenodd" clip-rule="evenodd" fill="#FFFFFF" d="M184.413,94.614c-14.105-28.75-38.699,16.169-57.433-11.486
	c-4.84,24.721-10.068,32.083-11.488,68.92c0,3.828,0,7.658,0,11.487c-82.714-18.619,30.016-160.715,80.409-63.178
	C191.249,99.266,190.176,94.595,184.413,94.614z"/>
<path fill-rule="evenodd" clip-rule="evenodd" fill="#7A94CB" d="M391.177,232.456c19.889-19.977,13.022,16.126,28.718,17.23
	c30.652-27.789,70.957-59.996,86.149-86.151c9.178,19.411-24.375,24.505-5.743,34.461c23.335-11.128,23.188-45.733,51.691-51.691
	c0,34.46,0,68.92,0,103.381c-28.049-0.666-60.526,3.093-80.407-5.744c3.602,17.457-7.353,49.473,5.742,57.435
	c0,11.486,0,22.974,0,34.462c-26.862,9.83-39.334-1.365-68.921,5.743c-0.325-3.504-0.858-6.801-5.742-5.743
	c-6.111-13.036-36.104-2.187-51.69-5.744c-0.555,11.476-15.929,36.944-28.718,17.23c9.026-0.548,19.914,0.769,17.23-11.486
	c-12.009-12.521-16.393,2.87-34.46,0c17.279-20.152-10.048-32.48-11.488-51.691c28.131,2.607,58.517,71.314,63.177,0
	c14.16,0.758,27.672,0.871,34.461-5.743C393.909,252.975,383.274,249.843,391.177,232.456z"/>
<path fill-rule="evenodd" clip-rule="evenodd" fill="#A291A1" d="M287.796,226.712c-7.271,22.587,13.547,17.085,28.717,17.23
	c5.897,19.3-17.863,8.94-28.717,11.489c-0.587,33.131,45.179,19.913,45.947,51.689c26.104-0.698,9.659-43.946,51.69-28.717
	c0-5.743,0-11.486,0-17.229c0.969-12.456-20.371-2.603-28.718-5.743c-5.896-19.299,17.863-8.941,28.718-11.489
	c1.603-15.003,1.939-28.741-17.229-22.973c1.919-13.396,5.886-24.745,17.229-28.717c-2.987,8.499-8.498,14.476-11.486,22.973
	c12.528-1.042,18.272,4.702,17.229,17.231c-7.902,17.387,2.732,20.519,0,45.948c-6.789,6.614-20.301,6.501-34.461,5.743
	c-4.66,71.314-35.046,2.607-63.177,0c-20.663-14.896-1.372-34.04-11.486-57.435C283.966,226.712,285.881,226.712,287.796,226.712z"
	/>
<path fill-rule="evenodd" clip-rule="evenodd" fill="#7A94CB" d="M207.387,88.87c30.929-5.134,16.327,73.885,17.23,91.895
	c1.69-13.401,15.541-13.401,17.231,0c-11.323,22.574-39.142-2.187-51.691,22.974c13.245,11.399,6.38-1.442,17.23-5.743
	c-6.848,16.124-9.33,36.617-34.46,34.46c0.019-5.762-4.651-6.835-5.744-11.487c0.637-10.85,18.988-3.984,17.229-17.23
	c-32.782,20.457-86.449-0.496-86.15-22.974c5.761-0.018,6.834,4.652,11.487,5.744c16.101,6.872,39.632,6.317,63.177,5.743
	c13.394,12.987,53.193-26.809,40.204-40.204c0-9.573,0-19.144,0-28.718c0-1.915,0-3.828,0-5.743
	C217.877,101.355,205.037,102.709,207.387,88.87z"/>
<path fill-rule="evenodd" clip-rule="evenodd" fill="#F5DC9A" d="M115.492,152.048c1.42-36.838,6.648-44.199,11.488-68.92
	c18.733,27.655,43.327-17.264,57.433,11.486c-13.881,15.57,6.304,31.894,0,57.435c-16.147,1.082-15.719,18.74-28.717,22.973
	C136.214,173.445,136.012,152.588,115.492,152.048z M167.184,134.817c13.864-11.426-9.556-27.34,5.744-40.204
	c-19.935,18.51-31.869-1.889-45.947,5.744c10.05,11.704,0.48,30.054,0,40.205c-13.003,9.688,20.778,20.956,28.716,28.716
	c-1.731-15.132,7.954-18.848,22.975-17.229c0-3.83,0-7.659,0-11.486C172.908,140.58,171.836,135.91,167.184,134.817z"/>
<path fill-rule="evenodd" clip-rule="evenodd" fill="#5A6EB3" d="M172.927,192.252c4.457-1.286,11.328-0.157,11.486-5.743
	c11.517-9.544,26.698-15.421,28.718-34.46C226.12,165.443,186.321,205.239,172.927,192.252z"/>
<path fill-rule="evenodd" clip-rule="evenodd" fill="#C4CFEB" d="M213.131,123.331c0,9.574,0,19.145,0,28.718
	c-2.021,19.039-17.202,24.916-28.718,34.46C182.042,176.246,212.381,149.559,213.131,123.331z"/>
<path fill-rule="evenodd" clip-rule="evenodd" fill="#D6A777" d="M167.184,134.817c4.653,1.092,5.725,5.762,11.488,5.745
	c0,3.828,0,7.657,0,11.486c-15.021-1.618-24.706,2.097-22.975,17.229c-7.938-7.76-41.719-19.028-28.716-28.716
	C139.216,155.379,165.938,165.276,167.184,134.817z"/>
<path fill-rule="evenodd" clip-rule="evenodd" fill="#D6A777" d="M310.769,215.225c-7.29-13.768-25.178-16.94-22.973-40.204
	c39.91-11.194,29.299,28.135,57.434,28.717c2.104-17.04,9.955-28.333,22.974-34.461c0.088,9.484,15.93,3.214,17.229,11.487
	c0,3.829,0,7.658,0,11.487c-11.344,3.972-15.311,15.32-17.229,28.717c19.169-5.768,18.832,7.97,17.229,22.973
	c-10.854,2.548-34.613-7.81-28.718,11.489c8.347,3.141,29.687-6.713,28.718,5.743c0,5.743,0,11.486,0,17.229
	c-42.031-15.229-25.587,28.019-51.69,28.717c-0.769-31.776-46.535-18.559-45.947-51.689c10.854-2.549,34.614,7.811,28.717-11.489
	c-15.169-0.145-35.988,5.357-28.717-17.23c1.066-8.504,13.878-5.265,22.973-5.743c2.277,13.763-26.159-3.186-17.23,17.23
	c19.63-2.398,32.728,1.736,28.717,22.976c-10.854,2.545-34.615-7.812-28.717,11.486c32.601-9.627,32.493,13.454,45.948,22.973
	c2.308-18.75,13.729-28.389,40.204-22.973c5.289-24.436-37.911-0.379-34.46-22.975c10.212-5.102,14.598-16.034,34.46-11.487
	c-22.226-20.464-14.568-33.939,0-57.434c-35.245-10.355-18.441,31.334-45.947,28.717c-10.66-6.899-20.342-44.308-40.205-22.973
	C300.24,195.124,310.127,200.552,310.769,215.225z"/>
<path fill-rule="evenodd" clip-rule="evenodd" fill="#F5DC9A" d="M350.974,381.785c-0.22-32.767,17.018-48.074,57.432-40.203
	c29.587-7.108,42.059,4.087,68.921-5.743c0-11.488,0-22.976,0-34.462c-13.912-56.029,37.813-46.423,80.409-45.945
	c1.914,0,3.828,0,5.743,0c73.415-18.994,32.396,149.196,34.462,201.019c-79.374-6.778-186.408,14.104-246.967-11.486
	C357.188,421.662,348.735,413.451,350.974,381.785z M419.895,393.272c-4.652,22.151-55.713-2.108-57.436,22.974
	c6.112,13.035,36.104,2.186,51.691,5.744c0.431,10.002-1.282,17.861-5.744,22.974c23.118-3.688,61.073,7.467,74.666-5.744
	c-7.526-0.089-7.317-15.932,0-17.229c17.456,3.602,49.47-7.354,57.433,5.742c-1.374,8.197-9.457,9.688-11.486,17.231
	c31.666-2.239,39.878,6.213,63.177,0c10.771-64.867-0.492-108.367,5.746-172.303c-28.264-18.48-96.287-3.569-114.869,22.973
	c10.311,14.578,55.487-5.713,57.433,17.229c-13.291,15.428-67.287-9.852-57.433,28.719c17.456,3.603,49.47-7.354,57.433,5.743
	c-44.364,34.909-118.638-18.036-178.046,17.229c0,5.744,0,11.486,0,17.23C384.616,382.602,412.896,377.297,419.895,393.272z"/>
<path fill-rule="evenodd" clip-rule="evenodd" fill="#7A94CB" d="M126.98,433.475c18.144,17.416,22.557,12.855,51.691,17.231
	c7.186-27.273,43.269-25.651,45.946-57.435c0,17.229,0,34.46,0,51.691C224.512,493.418,127.124,470.777,126.98,433.475z"/>
</svg>
