<?xml version="1.0" encoding="utf-8"?>
<!-- Generator: Adobe Illustrator 15.0.0, SVG Export Plug-In  -->
<!DOCTYPE svg PUBLIC "-//W3C//DTD SVG 1.1//EN" "http://www.w3.org/Graphics/SVG/1.1/DTD/svg11.dtd" [
	<!ENTITY ns_flows "http://ns.adobe.com/Flows/1.0/">
]>
<svg version="1.1"
	 xmlns="http://www.w3.org/2000/svg" xmlns:xlink="http://www.w3.org/1999/xlink" xmlns:a="http://ns.adobe.com/AdobeSVGViewerExtensions/3.0/"
	 x="0px" y="0px" width="709px" height="709px" viewBox="0.434 -98.976 709 709" enable-background="new 0.434 -98.976 709 709"
	 xml:space="preserve">
<defs>
</defs>
<path fill-rule="evenodd" clip-rule="evenodd" fill="#5A6EB3" d="M382.727,13.32c4.049,0,8.1,0,12.15,0
	c22.229,12.194,28.807,40.042,72.898,30.375c2.57,56.888,25.035,181.764-12.148,218.701c-9.193-92.721,21.783-139.409-6.076-212.626
	c-41.506,5.712-94.982,22.813-139.725,6.075C311.943,19.487,354.924,23.993,382.727,13.32z"/>
<path fill-rule="evenodd" clip-rule="evenodd" fill="#C4CFEB" d="M206.55,207.72c4.032-32.382-4.701-51.999-18.225-66.825
	c-4.389-18.564,6.211-22.139,6.075-36.45c36.45,0,72.9,0,109.351,0c12.773,23.678,3.042,69.858,6.076,103.275
	C265.176,204.484,242.344,216.625,206.55,207.72z"/>
<path fill-rule="evenodd" clip-rule="evenodd" fill="#EBF1FA" d="M346.277,116.595c13.933-9.498,58.966-9.498,72.899,0
	c0,8.1,0,16.2,0,24.3C397.903,151.264,337.299,155.957,346.277,116.595z"/>
<path fill-rule="evenodd" clip-rule="evenodd" fill="#F3B236" d="M145.8,122.67c103.797,26.76,15.686,186.696-66.826,109.351
	C46.522,181.638,85.911,118.931,145.8,122.67z M139.725,159.12c-28.085,3.242-6.092,46.678,0,54.675
	c10.453,0.327,15.574-4.677,18.226-12.15C142.304,197.042,136.842,182.254,139.725,159.12z"/>
<path fill-rule="evenodd" clip-rule="evenodd" fill="#C4CFEB" d="M346.277,171.27c25.89,2.46,62.581-5.882,78.974,6.075
	c7.518,41.595-52.471,42.422-78.974,30.375C346.277,195.57,346.277,183.42,346.277,171.27z"/>
<path fill-rule="evenodd" clip-rule="evenodd" fill="#EBF1FA" d="M419.176,256.321c-45.131,20.163-173.57,20.163-218.701,0
	C273.375,256.321,346.277,256.321,419.176,256.321z"/>
<path fill-rule="evenodd" clip-rule="evenodd" fill="#C4CFEB" d="M127.575,262.396c6.075,0,12.15,0,18.226,0
	c0,52.649,0,105.299,0,157.949C125.977,381.446,156.576,292.121,127.575,262.396z"/>
<path fill-rule="evenodd" clip-rule="evenodd" fill="#93A9D8" d="M145.8,262.396c2.025,0,4.05,0,6.075,0
	c0,54.675,0,109.35,0,164.025c-5.167,1.117-5.731-2.369-6.075-6.076C145.8,367.695,145.8,315.045,145.8,262.396z"/>
<path fill-rule="evenodd" clip-rule="evenodd" fill="#FFFFFF" d="M534.602,317.071c-7.979,2.146-9.555,10.695-18.225,12.15
	c-8.75,3.4-14.824,9.476-18.227,18.225c-9.436-8.789-28.348-8.102-36.449-18.225c-5.533,1.651-16.135,26.9-6.074,24.3
	c0,2.024,0,4.051,0,6.074c7.291,7.979,2.367,9.557,0,18.226c-26.863-11.547-5.443-55.865,0-72.899
	c16.574-4.426,12.229,12.071,24.299,12.149c15.66-1.463-8.342-10.452,0-24.3c22.498-10.813,50.594-0.581,66.826,12.15
	C545.249,311.519,534.672,309.042,534.602,317.071z"/>
<path fill-rule="evenodd" clip-rule="evenodd" fill="#C4CFEB" d="M358.426,323.145C318.46,326,214.601,347.417,194.4,310.996
	c42.17-10.65,121.587-9.027,164.026,0C358.426,315.045,358.426,319.095,358.426,323.145z"/>
<path fill-rule="evenodd" clip-rule="evenodd" fill="#5A6EB3" d="M170.1,444.647c-20.739-15.711-9.285-63.615-12.15-97.201
	c18.607,12.856,7.441,41.932,12.15,78.976c78.018,11.319,205.094-7.659,279.451,0c2.025,0,4.051,0,6.076,0
	c1.453,8.67,10.004,10.246,12.148,18.226C368.551,444.647,269.325,444.647,170.1,444.647z"/>
<path fill-rule="evenodd" clip-rule="evenodd" fill="#EBF1FA" d="M376.651,365.671c-31.216,20.123-144.959,20.123-176.175,0
	C259.201,365.671,317.926,365.671,376.651,365.671z"/>
<path fill-rule="evenodd" clip-rule="evenodd" fill="#EBF1FA" d="M498.151,43.695c0,40.5,0,81,0,121.5
	c133.297-35.008,230.748,78.073,200.477,218.701C662.51,551.683,302.628,443.292,145.8,462.872
	c-1.23-23.07-17.515-31.086-24.3-48.601c-42.691,2.19-69.91-11.09-97.2-24.3c-0.533-24.834,30.093-18.508,36.45-36.45
	c-0.901-58.796-1.071-67.063-18.226-127.575c-10.391-0.266-15.735,4.515-18.225,12.15c4.048-22.991-15.503-35.297-24.3-60.75
	c32.537-8.236,18.82,29.78,36.45,36.45c19.831-24.192-9.728-50.79-18.226-66.826c19.999-20.301,12.253,4.551,36.45-6.074
	c8.395-24.594-13.186-19.214-12.15-36.45c34.851-34.935,83.941-23.336,97.2-72.9C235.071-5.397,420.586-19.672,498.151,43.695z
	 M407.026,13.32c-88.904-20.019-191.373-1.049-255.15,24.3C140.064,56.184,138,84.495,139.725,116.595
	C57.212,86.468,24.252,262.146,121.5,262.396c2.025,0,4.05,0,6.075,0c29.001,29.725-1.598,119.05,18.226,157.949
	c0.344,3.707,0.908,7.193,6.075,6.076c0,2.024,0,4.05,0,6.075c3.4,8.748,9.476,14.823,18.225,18.225
	c146.246-7.775,360.555,49.75,443.477-24.3c7.99-92.615-27.32-168.477-121.5-176.175c-10.893-51.058,6.721-158.227-18.225-212.626
	C437.366,43.732,420.833,29.889,407.026,13.32z M510.303,219.871c9.441,7.332,23.672,19.413,36.449,6.075
	c2.881-19.081-7.576-24.824-18.225-30.375C526.741,207.958,512.088,207.483,510.303,219.871z M121.5,317.071
	C55.79,272.153,97.634,394.366,121.5,317.071L121.5,317.071z"/>
<path fill-rule="evenodd" clip-rule="evenodd" fill="#C4CFEB" d="M139.725,116.595c-1.724-32.101,0.34-60.411,12.151-78.976
	c63.778-25.349,166.246-44.319,255.15-24.3c-4.049,0-8.1,0-12.148,0c-4.051,0-8.102,0-12.15,0c-18.227,0-36.45,0-54.676,0
	c-44.462,4.139-111.405-14.204-121.501,24.3c-16.201,0-32.4,0-48.6,0c-9.478,20.898-14.265,46.486-12.15,78.976
	C143.775,116.595,141.75,116.595,139.725,116.595z"/>
<path fill-rule="evenodd" clip-rule="evenodd" fill="#F5DC9A" d="M139.725,116.595c2.025,0,4.05,0,6.076,0c0,2.025,0,4.049,0,6.075
	c-59.889-3.739-99.278,58.968-66.826,109.351c4.525,19.776,30.126,18.474,42.525,30.375
	C24.252,262.146,57.212,86.468,139.725,116.595z"/>
<path fill-rule="evenodd" clip-rule="evenodd" fill="#C4CFEB" d="M455.627,268.471c11.484,1.361,13.402-6.847,24.299-6.075
	c-3.379-73.572,7.18-161.082-6.074-224.776c24.945,54.399,7.332,161.568,18.225,212.626c94.18,7.699,129.49,83.56,121.5,176.175
	c-82.922,74.05-297.231,16.524-443.477,24.3c119.432-9.013,400.961,33.444,425.252-66.825c8.199-33.847-4-102.219-36.449-78.975
	c-66.244-79.403-176.469,48.106-91.127,103.274c-2.023,0-4.049,0-6.074,0c1.799-10.588-23.568-21.307-18.225,0
	C390.467,386.514,414.344,283.346,455.627,268.471z"/>
<path fill-rule="evenodd" clip-rule="evenodd" fill="#93A9D8" d="M206.55,37.62c10.096-38.504,77.039-20.161,121.501-24.3
	C295.92,29.79,223.441,5.91,206.55,37.62z"/>
<path fill-rule="evenodd" clip-rule="evenodd" fill="#7A94CB" d="M407.026,13.32c13.807,16.569,30.34,30.412,66.826,24.3
	c13.254,63.695,2.695,151.205,6.074,224.776c-10.896-0.771-12.814,7.437-24.299,6.075c-61.471,7.677-66.213,138.472-6.076,151.874
	c0,2.025,0,4.051,0,6.076c-74.357-7.659-201.433,11.319-279.451,0c-4.709-37.044,6.458-66.119-12.15-78.976
	c2.865,33.586-8.589,81.49,12.15,97.201c-7.979-2.147-9.554-10.696-18.225-12.15c0-2.025,0-4.051,0-6.075
	c0-54.676,0-109.351,0-164.025c10.896,0.771,12.813-7.437,24.3-6.075c-7.115,52.632,11.859,79.996,6.074,115.425
	c35.065,32.456,167.86,22.789,212.627,6.075c-15.898-50.928-126.833-6.818-170.102-30.375
	c22.35-34.351,125.179,11.779,139.725-30.375c-1.564-28.811-45.917-14.832-72.899-18.226c22.645-32.03,101.907-7.441,139.726-24.3
	c0.506-9.619-2.922-23.171,6.074-24.299c-6.461-13.788-38.188-2.313-54.674-6.075c9.965-4.728,33.373-20.166,0-18.225
	c35.875-2.599,50.789-26.162,66.824-48.601c-20.896-19.032,17.559-82.343-6.074-121.5c-77.713,26.814-181.226,2.3-267.301,0
	c-5.554,20.128-0.646,56.657,0,72.9c-7.981-6.193-22.395-5.956-30.375-12.15c-2.115-32.49,2.672-58.078,12.15-78.976
	c16.2,0,32.399,0,48.6,0c16.891-31.71,89.37-7.83,121.501-24.3c18.226,0,36.449,0,54.676,0c-27.803,10.673-70.784,6.167-72.9,42.525
	c44.743,16.737,98.219-0.363,139.725-6.075c27.859,73.217-3.117,119.905,6.076,212.626c37.184-36.937,14.719-161.813,12.148-218.701
	c-44.092,9.667-50.67-18.181-72.898-30.375C398.926,13.32,402.977,13.32,407.026,13.32z"/>
<path fill-rule="evenodd" clip-rule="evenodd" fill="#EBF1FA" d="M558.903,304.921c2.945,7.179,6.477,13.772,12.15,18.224
	c0,18.226,0,36.45,0,54.676c-15.029,29.554-66.629,59.356-103.277,30.375C382.434,353.028,492.659,225.519,558.903,304.921z
	 M534.602,317.071c0.07-8.029,10.646-5.552,12.15-12.149c-16.232-12.731-44.328-22.964-66.826-12.15
	c-8.342,13.848,15.66,22.837,0,24.3c-12.07-0.078-7.725-16.575-24.299-12.149c-5.443,17.034-26.863,61.353,0,72.899
	c2.367-8.669,7.291-10.246,0-18.226c14.113,4.113,16.262,20.188,30.373,24.301c4.051,0,8.102,0,12.15,0
	c24.844-11.117,61.123-38.022,48.602-66.825C542.702,317.071,538.651,317.071,534.602,317.071z"/>
<path fill-rule="evenodd" clip-rule="evenodd" fill="#93A9D8" d="M455.627,268.471c-41.283,14.875-65.16,118.043-12.15,139.725
	c-5.344-21.307,20.023-10.588,18.225,0c-29.305-16.107,7.738,17.99-6.074,18.226c-2.025,0-4.051,0-6.076,0c0-2.025,0-4.051,0-6.076
	C389.415,406.943,394.157,276.148,455.627,268.471z"/>
<path fill-rule="evenodd" clip-rule="evenodd" fill="#93A9D8" d="M176.176,128.745c-0.646-16.243-5.554-52.771,0-72.9
	c86.076,2.3,189.588,26.814,267.301,0c23.633,39.157-14.822,102.468,6.074,121.5c-16.035,22.439-30.949,46.002-66.824,48.601
	c33.373-1.94,9.965,13.498,0,18.225c16.486,3.762,48.213-7.712,54.674,6.075c-8.996,1.128-5.568,14.68-6.074,24.299
	c-37.818,16.858-117.081-7.73-139.726,24.3c26.982,3.394,71.335-10.585,72.899,18.226c-14.545,42.154-117.375-3.976-139.725,30.375
	c43.269,23.557,154.203-20.553,170.102,30.375c-44.767,16.714-177.563,26.381-212.627-6.075
	c5.785-35.429-13.189-62.793-6.074-115.425c9.135-17.19,26.771-25.88,30.375-48.601c35.793,8.905,58.626-3.236,103.276,0
	c-3.033-33.417,6.698-79.597-6.076-103.275c-36.451,0-72.901,0-109.351,0c0.136,14.311-10.463,17.886-6.075,36.45
	C181.509,139.611,178.868,134.152,176.176,128.745z M358.426,310.996c-42.439-9.027-121.855-10.65-164.026,0
	c20.201,36.422,124.06,15.004,164.026,12.149C358.426,319.095,358.426,315.045,358.426,310.996z M376.651,359.595
	c-51.342,10.57-168.085-21.878-182.25,18.226c46.947,6.377,151.393,17.795,188.327-6.075
	C382.745,365.652,377.805,364.516,376.651,359.595z M340.201,140.896c13.113,18.697,63.282,13.938,85.049,6.074
	c0-12.15,0-24.3,0-36.45C400.381,101.932,324.793,89.527,340.201,140.896z M346.277,207.72
	c26.503,12.047,86.491,11.22,78.974-30.375c-16.393-11.957-53.084-3.615-78.974-6.075C346.277,183.42,346.277,195.57,346.277,207.72
	z M407.026,250.246c-31.871,0-76.578,0-115.425,0c-36.764,0-88.616-14.362-97.201,18.225c60.01,3.264,190.622,24.605,230.85-12.15
	C417.485,255.986,416.838,248.534,407.026,250.246z"/>
<path fill-rule="evenodd" clip-rule="evenodd" fill="#A291A1" d="M206.55,207.72c-3.604,22.721-21.24,31.411-30.375,48.601
	c-11.487-1.361-13.404,6.847-24.3,6.075c-2.025,0-4.05,0-6.075,0C170.568,248.688,191.171,230.816,206.55,207.72z"/>
<path fill-rule="evenodd" clip-rule="evenodd" fill="#C4CFEB" d="M425.25,110.52c0,12.15,0,24.3,0,36.45
	c-21.768,7.864-71.936,12.623-85.049-6.074C324.793,89.527,400.381,101.932,425.25,110.52z M419.176,140.896c0-8.1,0-16.201,0-24.3
	c-13.934-9.498-58.967-9.498-72.899,0C337.299,155.957,397.903,151.264,419.176,140.896z"/>
<path fill-rule="evenodd" clip-rule="evenodd" fill="#D6A777" d="M121.5,262.396c-12.399-11.901-38-10.599-42.525-30.375
	c82.511,77.345,170.623-82.591,66.826-109.351c0-2.025,0-4.049,0-6.075c7.981,6.194,22.394,5.957,30.375,12.15
	c2.692,5.407,5.333,10.866,12.15,12.15c13.524,14.826,22.257,34.442,18.225,66.825c-15.379,23.096-35.982,40.968-60.75,54.676
	c-6.076,0-12.15,0-18.226,0C125.55,262.396,123.525,262.396,121.5,262.396z"/>
<path fill-rule="evenodd" clip-rule="evenodd" fill="#C4CFEB" d="M425.25,256.321c-40.229,36.756-170.84,15.414-230.85,12.15
	c8.584-32.587,60.437-18.225,97.201-18.225c38.847,0,83.554,0,115.425,0C416.838,248.534,417.485,255.986,425.25,256.321z
	 M200.476,256.321c45.131,20.163,173.57,20.163,218.701,0C346.277,256.321,273.375,256.321,200.476,256.321z"/>
<path fill-rule="evenodd" clip-rule="evenodd" fill="#EBF1FA" d="M455.627,353.521c-10.061,2.601,0.541-22.648,6.074-24.3
	c8.102,10.123,27.014,9.436,36.449,18.225c3.402-8.749,9.477-14.824,18.227-18.225C506.229,373.18,471.901,325.603,455.627,353.521z
	"/>
<path fill-rule="evenodd" clip-rule="evenodd" fill="#7A94CB" d="M571.053,323.145c-9.096-44.534,17.795,17.787,18.225,30.376
	c1.008,29.601-28.941,80.93-66.826,85.05c-29.535,3.213-61.359-26.518-54.676,6.076c-2.145-7.979-10.695-9.556-12.148-18.226
	c13.813-0.235-23.23-34.333,6.074-18.226c2.025,0,4.051,0,6.074,0c36.648,28.981,88.248-0.821,103.277-30.375
	C571.053,359.595,571.053,341.371,571.053,323.145z"/>
<path fill-rule="evenodd" clip-rule="evenodd" fill="#D6A777" d="M467.776,347.446c0.256,26.898,37.189,29.354,48.602,12.149
	c-1.787,12.389-16.438,11.914-18.227,24.301c-4.049,0-8.1,0-12.15,0c-3.779-16.47-25.379-15.12-24.299-36.45
	C463.727,347.446,465.752,347.446,467.776,347.446z"/>
<path fill-rule="evenodd" clip-rule="evenodd" fill="#F3B236" d="M516.377,359.595c-11.412,17.205-48.346,14.749-48.602-12.149
	c19.52-5.344,8.326,20.025,24.301,18.226c23.465-4.885,27.008-29.693,42.525-42.526C552.608,335.723,525.94,354.505,516.377,359.595
	z"/>
<path fill-rule="evenodd" clip-rule="evenodd" fill="#F5DC9A" d="M455.627,353.521c16.273-27.918,50.602,19.659,60.75-24.3
	c8.67-1.455,10.246-10.005,18.225-12.15c4.049,0,8.1,0,12.15,0c12.521,28.803-23.758,55.708-48.602,66.825
	c1.789-12.387,16.439-11.912,18.227-24.301c9.563-5.09,36.23-23.872,18.225-36.45c-15.518,12.833-19.061,37.642-42.525,42.526
	c-15.975,1.8-4.781-23.569-24.301-18.226c-2.023,0-4.049,0-6.074,0c-1.08,21.33,20.52,19.98,24.299,36.45
	c-14.111-4.112-16.26-20.188-30.373-24.301C455.627,357.572,455.627,355.545,455.627,353.521z"/>
<path fill-rule="evenodd" clip-rule="evenodd" fill="#C4CFEB" d="M382.727,371.746c-36.934,23.87-141.379,12.452-188.327,6.075
	c14.166-40.104,130.908-7.655,182.25-18.226C377.805,364.516,382.745,365.652,382.727,371.746z M200.476,365.671
	c31.216,20.123,144.959,20.123,176.175,0C317.926,365.671,259.201,365.671,200.476,365.671z"/>
<path fill-rule="evenodd" clip-rule="evenodd" fill="#93A9D8" d="M170.1,450.721c-8.749-3.401-14.824-9.477-18.225-18.225
	c8.67,1.454,10.246,10.003,18.225,12.15c99.225,0,198.451,0,297.676,0c-6.684-32.594,25.141-2.863,54.676-6.076
	c37.885-4.12,67.834-55.449,66.826-85.05c-0.43-12.589-27.32-74.91-18.225-30.376c-5.674-4.451-9.205-11.045-12.15-18.224
	c32.449-23.244,44.648,45.128,36.449,78.975C571.061,484.166,289.532,441.708,170.1,450.721z"/>
<path fill-rule="evenodd" clip-rule="evenodd" fill="#F5DC9A" d="M157.95,201.646c-2.652,7.473-7.773,12.477-18.226,12.15
	c-6.092-7.997-28.085-51.434,0-54.675C136.842,182.254,142.304,197.042,157.95,201.646z"/>
<path fill-rule="evenodd" clip-rule="evenodd" fill="#C4CFEB" d="M528.528,195.57c10.648,5.551,21.105,11.294,18.225,30.375
	c-12.777,13.338-27.008,1.256-36.449-6.075C512.088,207.483,526.741,207.958,528.528,195.57z"/>
<path fill-rule="evenodd" clip-rule="evenodd" fill="#C4CFEB" d="M121.5,317.071C97.634,394.366,55.79,272.153,121.5,317.071
	L121.5,317.071z"/>
</svg>
