<?xml version="1.0" encoding="utf-8"?>
<!-- Generator: Adobe Illustrator 15.0.0, SVG Export Plug-In  -->
<!DOCTYPE svg PUBLIC "-//W3C//DTD SVG 1.1//EN" "http://www.w3.org/Graphics/SVG/1.1/DTD/svg11.dtd" [
	<!ENTITY ns_flows "http://ns.adobe.com/Flows/1.0/">
]>
<svg version="1.1"
	 xmlns="http://www.w3.org/2000/svg" xmlns:xlink="http://www.w3.org/1999/xlink" xmlns:a="http://ns.adobe.com/AdobeSVGViewerExtensions/3.0/"
	 x="0px" y="0px" width="709px" height="709px" viewBox="-5.321 -125.541 709 709" enable-background="new -5.321 -125.541 709 709"
	 xml:space="preserve">
<defs>
</defs>
<path fill-rule="evenodd" clip-rule="evenodd" fill="#5A6EB3" d="M550.247,32.293c8.217,44.732-18.678,54.353-24.344,85.205
	c-18.258,0-36.516,0-54.773,0c-3.01-35.469,1.749-63.169,12.172-85.205c15.168-5.119,32.606-7.967,54.773-6.085
	C539.421,30.949,543.173,33.284,550.247,32.293z"/>
<path fill-rule="evenodd" clip-rule="evenodd" fill="#93A9D8" d="M568.507,56.637c7.09,1.024,6.608,9.621,6.086,18.259
	c-3.707,14.552,7.641,44.156-6.086,48.689C568.507,101.269,568.507,78.953,568.507,56.637z"/>
<path fill-rule="evenodd" clip-rule="evenodd" fill="#F3B236" d="M75.535,123.585c4.408-13.85,5.426-31.091,12.172-42.603
	c38.618,1.956,86.299-5.151,115.635,6.086c1.364,4.723,0.168,12.005,6.086,12.172c0,2.028,0,4.057,0,6.085
	c-14.09,24.455-2.111,74.979-6.086,109.549c-51.675,6.889-72.448-4.658-115.635,6.087C73.099,199.054,91.166,144.469,75.535,123.585
	z M105.965,147.929c10.629,5.6,13.433,19.026,12.172,36.516c17.532,0.727,39.841-3.324,48.688,6.086
	c-3.533-23.82,5.236-35.336,12.172-48.688c-21.743-0.572-21.957-22.674-42.602-24.344
	C137.183,138.573,109.621,131.298,105.965,147.929z"/>
<path fill-rule="evenodd" clip-rule="evenodd" fill="#EBF1FA" d="M440.699,93.154c-45.603,23.417-157.517,12.838-213.013,6.087
	C272.939,75.014,385.311,87.137,440.699,93.154z"/>
<path fill-rule="evenodd" clip-rule="evenodd" fill="#C4CFEB" d="M69.449,105.326c3.328,8.844-7.111,31.457,6.086,30.431
	c4.7,29.043-9.517,39.171-6.086,66.946c-14.063-20.425-2.132-66.843-6.086-97.377C65.392,105.326,67.42,105.326,69.449,105.326z"/>
<path fill-rule="evenodd" clip-rule="evenodd" fill="#A291A1" d="M209.428,111.413c13.442,0.759,2.585,25.817,6.086,36.517
	c0,8.114,0,16.229,0,24.344c0,12.172,0,24.344,0,36.517c0,2.029,0,4.057,0,6.085C201.438,192.437,213.393,143.964,209.428,111.413z"
	/>
<path fill-rule="evenodd" clip-rule="evenodd" fill="#C4CFEB" d="M373.752,154.015c-18.037,33.072-123.982,20.979-152.151,6.086
	C248.069,136.98,337.442,147.333,373.752,154.015z"/>
<path fill-rule="evenodd" clip-rule="evenodd" fill="#7A94CB" d="M215.514,172.273c48.716,29.325,112.372-15.065,133.894,24.344
	c-39.087-3.41-82.529-2.385-133.894,12.172C215.514,196.617,215.514,184.445,215.514,172.273z"/>
<path fill-rule="evenodd" clip-rule="evenodd" fill="#C4CFEB" d="M513.731,202.703c21.071-4.266,21.829,21.337,12.172,30.431
	C510.562,231.67,500.686,215.188,513.731,202.703z"/>
<path fill-rule="evenodd" clip-rule="evenodd" fill="#EBF1FA" d="M434.613,214.875c-49.209,30.766-117.938,15.519-200.841,12.173
	C277.482,199.754,370.917,222.183,434.613,214.875z"/>
<path fill-rule="evenodd" clip-rule="evenodd" fill="#A291A1" d="M209.428,227.048c0,4.056,0,8.114,0,12.172
	c-15.587,6.601-29.014-18.49-36.516,0c-6.106,0.02-7.243-4.93-12.172-6.086c-2.029,0-4.058,0-6.086,0
	C170.323,215.473,183.687,227.168,209.428,227.048z"/>
<path fill-rule="evenodd" clip-rule="evenodd" fill="#C4CFEB" d="M367.666,293.996c-42.971,3.529-153.17,23.994-176.496-12.172
	C234.142,278.292,344.341,257.829,367.666,293.996z"/>
<path fill-rule="evenodd" clip-rule="evenodd" fill="#EBF1FA" d="M367.666,342.683c-21.151,35.71-129.767,16.22-170.41,12.171
	C230.297,327.037,314.491,350.369,367.666,342.683z"/>
<path fill-rule="evenodd" clip-rule="evenodd" fill="#C4CFEB" d="M166.826,379.2c0.458,10.6-1.358,18.929-6.085,24.344
	c-27.785,2.646-67.015-6.152-85.206,6.086C92.156,372.133,151.571,413.934,166.826,379.2z"/>
<path fill-rule="evenodd" clip-rule="evenodd" fill="#5A6EB3" d="M379.838,458.319c-2.028,0-4.056,0-6.086,0
	c-22.314,0-44.631,0-66.946,0c-6.475-13.813-38.258-2.316-54.775-6.086c-8.588-57.278,46.09-51.289,91.292-54.775
	c21.63,8.801,14.119,46.742,42.602,48.689C385.943,452.252,380.996,453.389,379.838,458.319z"/>
<path fill-rule="evenodd" clip-rule="evenodd" fill="#C4CFEB" d="M118.137,458.319c6.086,0,12.172,0,18.259,0
	c54.774,0,109.549,0,164.324,0c0,2.028,0,4.056,0,6.086C241.856,460.378,166.868,472.477,118.137,458.319z"/>
<path fill-rule="evenodd" clip-rule="evenodd" fill="#93A9D8" d="M300.72,464.405c0-2.03,0-4.058,0-6.086c2.029,0,4.057,0,6.086,0
	c22.315,0,44.632,0,66.946,0C361.346,472.286,323.21,460.523,300.72,464.405z"/>
<path fill-rule="evenodd" clip-rule="evenodd" fill="#EBF1FA" d="M568.507,44.466c-58.624-59.057-243.926-23.841-340.82-24.344
	c-2.029,0-4.057,0-6.086,0c-29.358,5.129-43.453,25.522-54.775,48.688c-27.784,2.646-67.014-6.153-85.205,6.086
	c-12.638,1.562-1.663,26.739-12.172,30.43c-2.028,0-4.057,0-6.086,0c3.954,30.534-7.977,76.952,6.086,97.377c0,2.03,0,4.058,0,6.086
	c-9.318,0.124,3.046,28.71,6.086,36.517c28.402,0,56.803,0,85.206,0c-0.522,8.639-1.006,17.233,6.085,18.26
	c0,38.543,0,77.089,0,115.634c-15.255,34.734-74.669-7.066-91.291,30.43c1.157,4.93,6.106,6.066,6.086,12.172
	c2.083,22.261,20.837,27.852,36.517,36.518c48.73,14.158,123.719,2.06,182.583,6.086c22.49-3.882,60.626,7.881,73.032-6.086
	c2.03,0,4.058,0,6.086,0c12.173,0,24.346,0,36.518,0c54.276-31.998,192.529,39.43,219.098-54.775
	c-5.746-87.761-57.041-180.409-152.151-139.978c-14.118-30.515-2.091-87.173-6.087-127.809c38.158,3.67,64.372-4.603,97.378-6.087
	c9.41-8.847,5.359-31.157,6.086-48.688c29.64,31.103-1.961,69.979-12.172,97.376c23.938,8.941,62.789,1.103,91.291,18.259
	c77.519,105.419,33.182,271.24-97.378,286.045c-129.895-50.14-362.158,42.588-492.971-36.516
	c8.039-68.717-85.769-87.83-66.947-164.323c18.199,8.173,2.49,50.256,24.345,54.773c27.855-5.807-15.018-36.129,12.172-42.602
	c11.223,7.674-7.099,32.366,12.172,42.602c13.046-22.75-9.145-41.89,12.172-66.947c-6.552,4.042-22.843-17.248-30.43-6.084
	c6.927-30.588-8.537-30.666-24.345-73.035c11.498,0.676,4.224,20.121,18.259,18.259c-43.153-65.554,32.181-83.938,42.602-146.065
	c57.201-1.628,115.494-16.478,152.152-54.775c141.025,27.599,337.241-69.288,359.078,66.947c-2.03,0-4.057,0-6.086,0
	c0.522-8.638,1.004-17.234-6.086-18.259C568.507,52.581,568.507,48.523,568.507,44.466z M525.903,233.134
	c9.657-9.094,8.899-34.697-12.172-30.431C500.686,215.188,510.562,231.67,525.903,233.134z M99.879,318.339
	c1.286-6.828,6.754-9.476,12.172-12.172c-0.412-17.846-13.912-22.604-24.344-30.43C66.488,291.749,69.163,312.424,99.879,318.339z"
	/>
<path fill-rule="evenodd" clip-rule="evenodd" fill="#C4CFEB" d="M227.687,20.122c96.895,0.503,282.196-34.712,340.82,24.344
	c-7.993-2.15-9.572-10.715-18.26-12.172c-7.074,0.99-10.826-1.344-12.172-6.085c-2.62-13.608-29.993-2.465-42.602-6.086
	C406.212,20.122,316.949,20.122,227.687,20.122z"/>
<path fill-rule="evenodd" clip-rule="evenodd" fill="#7A94CB" d="M209.428,239.22c63.181,7.23,187.346,21.576,243.443-12.172
	c1.099-35.587-47.314-21.661-79.119-24.345c0.816-33.497,20.13-46.097,6.086-79.118c30.092-6.425,70.827-2.206,79.119-30.431
	c5.794-22.43-50.059-14.312-36.516-24.344c2.493-8.896,31.039-44.775,73.032-48.688c12.608,3.621,39.981-7.521,42.602,6.086
	c-22.167-1.881-39.605,0.967-54.773,6.085C472.879,54.33,468.12,82.03,471.13,117.499c18.258,0,36.516,0,54.773,0
	c5.666-30.852,32.561-40.473,24.344-85.205c8.688,1.458,10.267,10.022,18.26,12.172c0,4.057,0,8.115,0,12.171
	c0,22.316,0,44.632,0,66.948c-8.115,0-16.229,0-24.345,0c-26.372,0-52.746,0-79.118,0c-14.448,38.72,10.44,84.936,0,121.721
	c-12.615,44.442-64.79,51.246-48.688,127.808c6.477,30.799,53.031,44.512,18.258,73.033c-7.191,2.951-13.798,6.488-18.258,12.172
	c-12.172,0-24.345,0-36.518,0c1.158-4.93,6.105-6.066,6.086-12.172c-28.482-1.947-20.972-39.889-42.602-48.689
	c-45.202,3.486-99.879-2.503-91.292,54.775c16.517,3.77,48.3-7.728,54.775,6.086c-2.029,0-4.057,0-6.086,0
	c-54.774,0-109.55,0-164.324,0c-21.396-9.035-45.353-15.508-54.775-36.518c0.02-6.105-4.929-7.242-6.086-12.172
	c18.191-12.238,57.421-3.44,85.206-6.086c2.028,0,4.057,0,6.085,0c9.415-8.844,12.777-23.739,12.172-42.602
	c37.188,21.7,135.992,14.057,182.582,6.086c16.366,0.191,16.366-30.622,0-30.431c-42.681-10.133-127.729-10.133-170.41,0
	c8.496-46.326,154.412-7.848,188.668-48.688c-39.372-33.497-153.966-33.079-194.754-12.172c-8.727-7.503-11.53-20.931-12.171-36.518
	C180.415,220.73,193.841,245.821,209.428,239.22z"/>
<path fill-rule="evenodd" clip-rule="evenodd" fill="#93A9D8" d="M221.601,20.122c2.029,0,4.057,0,6.086,0
	c89.263,0,178.525,0,267.787,0c-41.993,3.913-70.539,39.792-73.032,48.688c-13.543,10.033,42.31,1.914,36.516,24.344
	c-8.292,28.226-49.027,24.006-79.119,30.431c14.044,33.021-5.27,45.622-6.086,79.118c31.805,2.685,80.218-11.242,79.119,24.345
	c-56.097,33.748-180.262,19.402-243.443,12.172c0-4.058,0-8.116,0-12.172c54.355,19.039,183.241,20.398,237.357,0
	c-42.158-36.05-169.477-15.635-231.271-12.173c0-2.028,0-4.056,0-6.085c51.365-14.558,94.807-15.582,133.894-12.172
	c-21.521-39.409-85.177,4.981-133.894-24.344c0-8.115,0-16.229,0-24.344c37.761-16.929,113.733-14.568,152.152-12.172
	c-26.529-36.444-104.682,6.665-139.979-24.345c70.47-6.62,168.345,14.164,219.099-12.172
	c-42.899-36.618-174.68-15.479-237.357-12.172c-1.377-8.766-18.165-2.122-18.258-12.172c64.918,0,129.836,0,194.754,0
	c26.178-17.792,19.143-31.748,48.689-42.603C357.28-4.224,257.732,79.536,233.772,56.637c-9.602-15.843,35.29-7.856,54.775-24.344
	c-54.551-14.473-98.432,14.293-103.463,42.603c-4.057,0-8.115,0-12.171,0C175.272,42.768,202.889,35.897,221.601,20.122z
	 M221.601,160.101c28.169,14.893,134.114,26.986,152.151-6.086C337.442,147.333,248.069,136.98,221.601,160.101z"/>
<path fill-rule="evenodd" clip-rule="evenodd" fill="#C4CFEB" d="M215.514,214.875c61.794-3.462,189.113-23.876,231.271,12.173
	c-54.116,20.398-183.001,19.039-237.357,0C210.585,222.119,215.535,220.982,215.514,214.875z M233.772,227.048
	c82.902,3.346,151.632,18.593,200.841-12.173C370.917,222.183,277.482,199.754,233.772,227.048z"/>
<path fill-rule="evenodd" clip-rule="evenodd" fill="#C4CFEB" d="M209.428,87.068c62.677-3.307,194.458-24.445,237.357,12.172
	c-50.754,26.336-148.628,5.552-219.099,12.172c-4.895-3.221-9.88-6.349-18.258-6.086c0-2.029,0-4.057,0-6.085
	C218.275,96.544,208.811,93.896,209.428,87.068z M227.687,99.241c55.496,6.751,167.41,17.33,213.013-6.087
	C385.311,87.137,272.939,75.014,227.687,99.241z"/>
<path fill-rule="evenodd" clip-rule="evenodd" fill="#C4CFEB" d="M166.826,68.81c11.322-23.166,25.417-43.559,54.775-48.688
	c-18.711,15.776-46.329,22.646-48.688,54.774C167.736,76.015,167.171,72.522,166.826,68.81z"/>
<path fill-rule="evenodd" clip-rule="evenodd" fill="#93A9D8" d="M544.162,123.585c-10.417,13.928-46.457,2.231-66.947,6.085
	c-14.117,30.513-2.09,87.172-6.085,127.808c-44.937,16.547-71.68,115.597-24.345,152.151c11.428-8.053-6.195-27.831,18.259-12.172
	c5.418,2.697,10.884,5.345,12.171,12.172c-4.929-1.156-6.064-6.105-12.171-6.086c39.582,95.078,205.872-45.047,115.635-97.376
	c-4.742-1.344-7.076-5.096-6.086-12.172c101.031,53.643-25.86,206.786-109.549,133.892c-19.107-2.876-16.079,16.382-30.431,18.26
	c34.773-28.521-11.781-42.234-18.258-73.033c-16.102-76.562,36.073-83.365,48.688-127.808c10.44-36.785-14.448-83.001,0-121.721
	C491.416,123.585,517.79,123.585,544.162,123.585z"/>
<path fill-rule="evenodd" clip-rule="evenodd" fill="#93A9D8" d="M118.137,458.319c-15.679-8.666-34.433-14.257-36.517-36.518
	c9.423,21.01,33.379,27.482,54.775,36.518C130.309,458.319,124.224,458.319,118.137,458.319z"/>
<path fill-rule="evenodd" clip-rule="evenodd" fill="#C4CFEB" d="M416.355,458.319c4.46-5.684,11.066-9.221,18.258-12.172
	c14.352-1.878,11.323-21.136,30.431-18.26c83.688,72.895,210.58-80.249,109.549-133.892c-0.99,7.076,1.344,10.828,6.086,12.172
	c0,4.058,0,8.113,0,12.172c-37.624-96.771-191.902-4.135-115.635,79.118c-24.454-15.659-6.831,4.119-18.259,12.172
	c-47.335-36.555-20.592-135.604,24.345-152.151c3.995-40.635-8.032-97.294,6.085-127.808c20.49-3.854,56.53,7.842,66.947-6.085
	c8.115,0,16.229,0,24.345,0c13.727-4.533,2.379-34.137,6.086-48.689c2.029,0,4.056,0,6.086,0c0,2.029,0,4.057,0,6.086
	c-0.727,17.532,3.324,39.841-6.086,48.688c-33.006,1.484-59.22,9.757-97.378,6.087c3.996,40.635-8.031,97.294,6.087,127.809
	c95.11-40.431,146.405,52.217,152.151,139.978C608.885,497.749,470.632,426.321,416.355,458.319z"/>
<path fill-rule="evenodd" clip-rule="evenodd" fill="#F5DC9A" d="M166.826,68.81c0.345,3.712,0.91,7.206,6.087,6.086
	c4.057,0,8.115,0,12.171,0c2.029,0,4.058,0,6.086,0c0.094,10.05,16.881,3.406,18.258,12.172c-0.618,6.828,8.847,9.476,0,12.172
	c-5.918-0.167-4.722-7.45-6.086-12.172c-29.335-11.238-77.017-4.13-115.635-6.086c-6.747,11.512-7.764,28.753-12.172,42.603
	c0,4.057,0,8.114,0,12.172c-13.197,1.025-2.758-21.587-6.086-30.431c10.509-3.691-0.466-28.869,12.172-30.43
	C99.812,62.657,139.042,71.456,166.826,68.81z"/>
<path fill-rule="evenodd" clip-rule="evenodd" fill="#F5DC9A" d="M136.396,117.499c20.646,1.67,20.859,23.772,42.602,24.344
	c-6.936,13.352-15.706,24.868-12.172,48.688c-8.848-9.41-31.157-5.359-48.688-6.086c1.261-17.489-1.542-30.916-12.172-36.516
	C109.621,131.298,137.183,138.573,136.396,117.499z M118.137,141.843c2.714,19.601,9.292,35.34,36.517,30.43
	c2.611-11.59,13.112-15.29,12.172-30.43C143.906,130.219,141.058,130.219,118.137,141.843z"/>
<path fill-rule="evenodd" clip-rule="evenodd" fill="#EBF1FA" d="M166.826,141.843c0.94,15.141-9.561,18.84-12.172,30.43
	c-27.225,4.91-33.802-10.829-36.517-30.43C141.058,130.219,143.906,130.219,166.826,141.843z"/>
<path fill-rule="evenodd" clip-rule="evenodd" fill="#EBF1FA" d="M465.044,397.458c-76.268-83.253,78.011-175.889,115.635-79.118
	c20.221,40.258-9.435,78.528-30.432,97.376c-26.472,0.101-54.757,2.015-73.032-6.086
	C475.928,402.802,470.462,400.155,465.044,397.458z M550.247,312.253c-62.962-107.9-148.378,103.622-48.688,79.118
	c-15.251,1.05-14.773-13.627-24.345-18.258c39.442,33.021,85.51-30.92,85.205-54.774
	C561.075,313.596,557.323,311.263,550.247,312.253z"/>
<path fill-rule="evenodd" clip-rule="evenodd" fill="#93A9D8" d="M160.74,233.134c4.929,1.156,6.066,6.105,12.172,6.086
	c0.642,15.587,3.445,29.015,12.171,36.518c40.788-20.907,155.382-21.325,194.754,12.172c-34.256,40.84-180.172,2.361-188.668,48.688
	c42.682-10.133,127.729-10.133,170.41,0c-53.814,7.046-136.477-14.755-170.41,12.172c23.32,39.571,117.518,8.262,170.41,18.259
	c-46.59,7.971-145.395,15.614-182.582-6.086c0.605,18.862-2.758,33.758-12.172,42.602c-2.028,0-4.057,0-6.085,0
	c4.727-5.415,6.543-13.744,6.085-24.344c0-38.545,0-77.091,0-115.634C168.768,249.451,165.848,240.199,160.74,233.134z
	 M191.17,281.824c23.326,36.166,133.525,15.701,176.496,12.172C344.341,257.829,234.142,278.292,191.17,281.824z"/>
<path fill-rule="evenodd" clip-rule="evenodd" fill="#C4CFEB" d="M361.58,367.028c-52.893-9.997-147.09,21.313-170.41-18.259
	c33.934-26.927,116.596-5.126,170.41-12.172C377.946,336.406,377.946,367.219,361.58,367.028z M197.256,354.854
	c40.643,4.049,149.259,23.539,170.41-12.171C314.491,350.369,230.297,327.037,197.256,354.854z"/>
<path fill-rule="evenodd" clip-rule="evenodd" fill="#F5DC9A" d="M550.247,312.253c7.076-0.99,10.828,1.343,12.173,6.086
	c0.305,23.854-45.763,87.795-85.205,54.774c-7.008-7.192-6.888-21.513-6.085-36.517c22.736-6.507,17.347,15.112,36.516,12.172
	C523.862,338.613,527.493,315.874,550.247,312.253z M507.646,354.854c-18.734,4.534-11.696-16.705-30.431-12.171
	c-4.919,26.085,32.157,51.133,42.603,24.345c14.08-12.294,32.521-20.227,36.518-42.603
	C524.361,318.825,531.419,352.254,507.646,354.854z"/>
<path fill-rule="evenodd" clip-rule="evenodd" fill="#FFFFFF" d="M550.247,312.253c-22.754,3.62-26.385,26.359-42.602,36.516
	c-19.169,2.94-13.779-18.679-36.516-12.172c-0.803,15.004-0.923,29.324,6.085,36.517c9.571,4.631,9.094,19.308,24.345,18.258
	C401.869,415.875,487.285,204.353,550.247,312.253z"/>
<path fill-rule="evenodd" clip-rule="evenodd" fill="#7A94CB" d="M580.679,306.167c90.237,52.329-76.053,192.454-115.635,97.376
	c6.106-0.02,7.242,4.93,12.171,6.086c18.275,8.101,46.561,6.187,73.032,6.086c20.997-18.848,50.652-57.118,30.432-97.376
	C580.679,314.281,580.679,310.225,580.679,306.167z"/>
<path fill-rule="evenodd" clip-rule="evenodd" fill="#D6A777" d="M507.646,354.854c-0.915,15.142-20.608,1.782-24.344,0
	c3.367,14.433,23.531,25.254,36.516,12.174c-10.445,26.788-47.521,1.74-42.603-24.345
	C495.949,338.149,488.911,359.388,507.646,354.854z"/>
<path fill-rule="evenodd" clip-rule="evenodd" fill="#F3B236" d="M519.817,367.028c-12.984,13.08-33.148,2.259-36.516-12.174
	c3.735,1.782,23.429,15.142,24.344,0c23.773-2.6,16.716-36.029,48.689-30.429C552.339,346.801,533.897,354.734,519.817,367.028z"/>
<path fill-rule="evenodd" clip-rule="evenodd" fill="#7A94CB" d="M185.084,74.896c5.032-28.309,48.913-57.075,103.463-42.603
	c-19.485,16.487-64.376,8.5-54.775,24.344c23.96,22.899,123.508-60.861,200.841-24.344c-29.547,10.855-22.512,24.811-48.689,42.603
	c-64.917,0-129.835,0-194.754,0C189.142,74.896,187.113,74.896,185.084,74.896z"/>
<path fill-rule="evenodd" clip-rule="evenodd" fill="#D6A777" d="M154.654,233.134c-37.642-6.974-59.117,1.721-79.119,0
	c-0.507-9.637,2.928-23.213-6.086-24.345c0-2.028,0-4.057,0-6.086c-3.431-27.775,10.786-37.903,6.086-66.946
	c0-4.058,0-8.116,0-12.172c15.631,20.884-2.436,75.469,12.172,97.377c43.187-10.745,63.96,0.802,115.635-6.087
	c3.975-34.57-8.003-85.094,6.086-109.549c0,2.028,0,4.058,0,6.086c3.965,32.552-7.991,81.024,6.086,103.462
	c0.021,6.107-4.929,7.244-6.086,12.173C183.687,227.168,170.323,215.473,154.654,233.134z"/>
<path fill-rule="evenodd" clip-rule="evenodd" fill="#C4CFEB" d="M69.449,208.79c9.014,1.131,5.579,14.708,6.086,24.345
	c20.002,1.721,41.477-6.974,79.119,0c2.029,0,4.058,0,6.086,0c5.108,7.064,8.027,16.316,6.085,30.432
	c-7.091-1.026-6.608-9.621-6.085-18.26c-28.402,0-56.804,0-85.206,0C72.495,237.5,60.131,208.913,69.449,208.79z"/>
<path fill-rule="evenodd" clip-rule="evenodd" fill="#7A94CB" d="M209.428,105.326c8.378-0.263,13.364,2.866,18.258,6.086
	c35.297,31.009,113.451-12.099,139.979,24.345c-38.419-2.396-114.391-4.757-152.152,12.172c-3.501-10.699,7.356-35.758-6.086-36.517
	C209.428,109.384,209.428,107.354,209.428,105.326z"/>
<path fill-rule="evenodd" clip-rule="evenodd" fill="#C4CFEB" d="M87.707,275.738c10.432,7.826,23.932,12.584,24.344,30.43
	c-5.418,2.696-10.886,5.344-12.172,12.172C69.163,312.424,66.488,291.749,87.707,275.738z"/>
</svg>
