<?xml version="1.0" encoding="utf-8"?>
<!-- Generator: Adobe Illustrator 15.0.0, SVG Export Plug-In  -->
<!DOCTYPE svg PUBLIC "-//W3C//DTD SVG 1.1//EN" "http://www.w3.org/Graphics/SVG/1.1/DTD/svg11.dtd" [
	<!ENTITY ns_flows "http://ns.adobe.com/Flows/1.0/">
]>
<svg version="1.1"
	 xmlns="http://www.w3.org/2000/svg" xmlns:xlink="http://www.w3.org/1999/xlink" xmlns:a="http://ns.adobe.com/AdobeSVGViewerExtensions/3.0/"
	 x="0px" y="0px" width="709px" height="709px" viewBox="-1.707 -102.852 709 709" enable-background="new -1.707 -102.852 709 709"
	 xml:space="preserve">
<defs>
</defs>
<path fill-rule="evenodd" clip-rule="evenodd" fill="#C4CFEB" d="M374.027,11.688c15.816-9.707,71.848-9.707,87.664,0
	C432.471,11.688,403.249,11.688,374.027,11.688z"/>
<path fill-rule="evenodd" clip-rule="evenodd" fill="#D6A777" d="M111.04,181.169c3.896,0,7.792,0,11.688,0
	c-1.789,7.085,16.884,20.151,17.533,5.845C161.192,208.589,103.121,210.477,111.04,181.169z"/>
<path fill-rule="evenodd" clip-rule="evenodd" fill="#C4CFEB" d="M537.665,204.546c13.858,3.234,24.249,22.597,11.689,35.065
	C524.597,239.056,522.175,215.993,537.665,204.546z"/>
<path fill-rule="evenodd" clip-rule="evenodd" fill="#7A94CB" d="M333.119,257.145c-9.741,0-19.481,0-29.222,0
	c0-7.792,0-15.585,0-23.377c5.845,0,11.689,0,17.533,0C321.506,245.38,337.376,241.199,333.119,257.145z"/>
<path fill-rule="evenodd" clip-rule="evenodd" fill="#EBF1FA" d="M520.133,157.792c85.632,20.306,207.187,48.012,181.17,198.704
	c-40.006,66.137-89.021,186.607-198.702,128.572c-57.71,55.791-233.099,23.35-327.275,23.377
	c-8.225-11.258-15.444-23.516-17.532-40.91c-77.221,7.09-130.848-9.412-151.949-58.441c20.8,4.525,32.028,18.621,40.909,35.064
	c23.076-25.641-17.02-96.482,17.533-99.351c2.316-14.006-26.619,3.241-17.533-17.533c11.984,3.217,13.942-11.159,5.844-11.688
	c5.317-15.987,20.479,10.372,29.222-5.844c5.685-21.27-28.468-2.7-17.532-29.221c-24.491-6.959-10.433,24.633-23.377,29.221
	c-9.74,0-19.48,0-29.221,0C5.306,281.051,8.523,267.073,0,233.768c16.139-2.503,5.484,21.788,17.532,23.377
	c26.076-8.718-3.375-26.239-5.844-40.91c10.054-89.297,27.613-171.088,140.26-157.792c10.238-11.191,12.389-30.469,17.532-46.753
	C272.726-1.013,360.709,2.844,467.535,0c39.533,13.064,19.074,86.121,52.598,105.195
	C519.489,134.172,525.87,133.909,520.133,157.792z M169.48,473.379c56.201,50.943,203.913,10.375,298.055,23.377
	c16.531-4.897,19.892-22.966,29.221-35.064c17.548,7.777,44.709,5.941,70.131,5.844c138.852-26.811,80.429-241.452-75.976-192.857
	c-3.878-77.94,7.771-171.409-5.844-239.613c-3.453-12.131-11.245-19.923-23.376-23.376c-15.816-9.707-71.848-9.707-87.664,0
	c-21.428,0-42.856,0-64.285,0c-44.333,2.419-99.24-5.733-134.417,5.844c-10.111,13.265,2.253,49.006-17.532,52.598
	C2.818,23.818-15.212,294.33,151.948,268.832c28.077,44.002-1.679,145.836,17.532,198.703
	C169.48,469.483,169.48,471.432,169.48,473.379z M549.354,239.611c12.56-12.468,2.169-31.831-11.689-35.065
	C522.175,215.993,524.597,239.056,549.354,239.611z M93.507,350.651C170.771,320.348,39.857,294.893,93.507,350.651L93.507,350.651z
	"/>
<path fill-rule="evenodd" clip-rule="evenodd" fill="#C4CFEB" d="M169.48,473.379c1.949,0,3.896,0,5.845,0c0,1.949,0,3.896,0,5.845
	c74.914,22.509,213.634,12.316,298.054,5.845c10.81-0.88,3.587-19.791,11.688-23.377c94.93,33.318,200.438-81.805,116.884-151.949
	c-7.444,1.322-7.658,17.443,0,17.532c3.293,12.683,13.958,47.856,0,58.442c21.017-178.758-233.858-48.563-105.195,35.064
	c0,1.949,0,3.896,0,5.845c-4.733-1.111-5.825-5.864-11.688-5.845c-5.229-10.058-23.721-18.35-17.532,5.845
	c-15.02-0.564-8.356-22.812-23.377-23.376c-32.005-82.071,47.935-93.837,40.909-169.482c0-66.235,0-132.469,0-198.703
	c13.615,68.204,1.966,161.672,5.844,239.613c156.404-48.595,214.827,166.047,75.976,192.857
	c-25.422,0.098-52.583,1.934-70.131-5.844c-9.329,12.099-12.689,30.167-29.221,35.064
	C373.394,483.754,225.682,524.322,169.48,473.379z"/>
<path fill-rule="evenodd" clip-rule="evenodd" fill="#C4CFEB" d="M309.742,11.688c-56.944,3.445-100.197,20.583-134.417,46.753
	c1.367,22.009,22.01,24.744,23.377,46.753c-8.188-0.439-22.351,1.304-11.688,5.844c-0.742,10.482,7.154,12.328,5.844,23.377
	C152.314,17.579-22.923,151.319,87.663,216.234c0,1.949,0,3.896,0,5.845c-1.949,0-3.896,0-5.845,0
	c-1.631-12.006-15.609-11.663-23.377-17.533c-5.75,60,75.936,51.474,111.039,52.598c0,70.13,0,140.26,0,210.391
	c-19.211-52.867,10.545-154.701-17.532-198.703C-15.212,294.33,2.818,23.818,157.793,70.13c19.785-3.592,7.421-39.333,17.532-52.598
	C210.502,5.956,265.409,14.108,309.742,11.688z"/>
<path fill-rule="evenodd" clip-rule="evenodd" fill="#EBF1FA" d="M87.663,222.079c0-1.948,0-3.896,0-5.845
	c-110.586-64.916,64.651-198.655,105.194-81.818C219.37,200.076,144.938,257.586,87.663,222.079z M157.793,128.572
	c-1.924,13.661-7.024,24.145-11.688,35.065c22.06-3.265,32.372-18.278,35.065-40.91c-43.265-57.584-141.682-19.765-116.884,64.287
	c19.523-3.549,27.88,33.933,40.909,17.532c-10.68-12.414-13.749-23.354-23.377-23.377c1.236-6.556,6.486-9.098,11.688-11.688
	c9.325,21.845,20.301,42.037,52.598,40.91c20.236-20.959-0.894-33.163-11.688-52.598
	C152.133,157.978,140.076,128.388,157.793,128.572z"/>
<path fill-rule="evenodd" clip-rule="evenodd" fill="#93A9D8" d="M309.742,11.688c21.429,0,42.857,0,64.285,0
	c29.222,0,58.443,0,87.664,0c12.131,3.454,19.923,11.246,23.376,23.376c0,66.234,0,132.468,0,198.703
	c-16.377-17.752,7.99-76.749-23.376-64.287c9.247-12.171,11.199-54.472-11.688-52.597c20.037-23.508,31.261-84.879-23.377-81.819
	c-13.618-11.413,39.673-5.093,46.753,0c6.106-28.437-104.194-19.311-134.415-11.688c0.16,5.683,7.152,4.535,11.688,5.844
	c-54.997,11.238-89.208,43.261-140.261,58.442c2.903,33.93,22.125,70.055,5.845,105.195c-9.636-22.604,5.075-71.002-29.222-81.819
	c-10.662-4.54,3.501-6.283,11.688-5.844c-1.367-22.009-22.01-24.745-23.377-46.753C209.545,32.271,252.798,15.134,309.742,11.688z"
	/>
<path fill-rule="evenodd" clip-rule="evenodd" fill="#7A94CB" d="M485.067,233.768c7.025,75.646-72.914,87.411-40.909,169.482
	c1.111,4.732,5.863,5.824,5.845,11.688c-34.572-27.127-13.203-102.441,5.845-128.572c-22.932-3.45-6.875,32.087-35.066,23.377
	c1.285-22.092,18.372-28.382,23.377-46.754c-19.909-2.332-9.633-17.991-23.377,0c-3.559-13.974,7.337-42.401-5.844-46.754
	c0-1.948,0-3.896,0-5.844c-6.614-28.45-24.147-45.982-52.598-52.598c-5.844,0-11.688,0-17.532,0c-9.74,0-19.48,0-29.221,0
	c-17.859-4.221-21.299,5.976-35.066,5.845c-60.192,18.205-65.413,122.134-17.532,157.793c-11.829,25.067,24.1,18.81,29.222,40.909
	c-1.389,21.988-23.964,22.789-40.91,29.221c32.301,20.42,43.967-29.916,81.819-23.377c-19.188,45.051-243.576,74.348-75.975,99.352
	c-24.907-2.366-60.205,5.659-75.975-5.844c-6.959,24.49,24.633,10.432,29.221,23.377c-17.858,4.222-21.298-5.976-35.065-5.845
	c0-1.948,0-3.896,0-5.845c0-52.598,0-105.195,0-157.793c6.729-18.908,6.615,15.694,5.845,23.377
	c20.163-17.459,4.729-41.242,5.844-70.131c-12.673-0.984-2.647,20.73-5.844,29.223c-13.357,14.854,1.668-48.088-11.689-52.599
	c-36.654,20.307-128.463-25.655-87.662-23.377c1.948,0,3.896,0,5.845,0c57.274,35.507,131.707-22.003,105.194-87.663
	c1.311-11.049-6.586-12.895-5.844-23.377c34.297,10.817,19.586,59.214,29.222,81.819c16.28-35.14-2.941-71.266-5.845-105.195
	c51.053-15.181,85.264-47.204,140.261-58.442c-4.535-1.309-11.527-0.161-11.688-5.844c30.221-7.623,140.521-16.749,134.415,11.688
	c-7.08-5.093-60.371-11.413-46.753,0c54.638-3.06,43.414,58.311,23.377,81.819c22.888-1.875,20.936,40.426,11.688,52.597
	C493.058,157.019,468.69,216.016,485.067,233.768z"/>
<path fill-rule="evenodd" clip-rule="evenodd" fill="#A291A1" d="M362.34,157.792c28.45,6.616,45.983,24.148,52.598,52.598
	C398.729,191.533,385.813,169.385,362.34,157.792z"/>
<path fill-rule="evenodd" clip-rule="evenodd" fill="#A291A1" d="M262.988,321.431c-47.881-35.659-42.66-139.589,17.532-157.793
	c-162.872,108.535,143.926,285.222,134.417,52.597c13.181,4.353,2.285,32.78,5.844,46.754
	C419.809,332.688,319.787,361.539,262.988,321.431z"/>
<path fill-rule="evenodd" clip-rule="evenodd" fill="#93A9D8" d="M169.48,467.535c0-70.131,0-140.261,0-210.391
	c-35.104-1.124-116.789,7.402-111.039-52.598c7.768,5.87,21.746,5.527,23.377,17.533c-40.801-2.278,51.008,43.684,87.662,23.377
	c13.357,4.51-1.668,67.453,11.689,52.599c3.196-8.492-6.829-30.207,5.844-29.223c-1.115,28.889,14.319,52.672-5.844,70.131
	c0.771-7.683,0.885-42.285-5.845-23.377c0,52.598,0,105.195,0,157.793c-1.948,0-3.896,0-5.845,0
	C169.48,471.432,169.48,469.483,169.48,467.535z"/>
<path fill-rule="evenodd" clip-rule="evenodd" fill="#93A9D8" d="M485.067,420.781c-1.948,0-3.896,0-5.844,0
	c19.848,62.957,139.391,34.273,146.104-40.908c0.436-4.871-11.046-84.374-23.377-52.599c-7.658-0.089-7.444-16.21,0-17.532
	c83.555,70.145-21.954,185.268-116.884,151.949c-4.015-23.257-34.115-20.43-35.064-46.754c0.019-5.863-4.733-6.955-5.845-11.688
	c15.021,0.564,8.357,22.812,23.377,23.376C461.347,402.432,479.839,410.724,485.067,420.781z"/>
<path fill-rule="evenodd" clip-rule="evenodd" fill="#EBF1FA" d="M496.756,426.626c0-1.948,0-3.896,0-5.845
	c-128.663-83.627,126.212-213.823,105.195-35.064c0,3.896,0,7.793,0,11.688c-14.247,9.131-15.271,31.483-35.064,35.065
	C541.754,439.878,515.933,439.305,496.756,426.626z M566.887,374.027c4.353-17.988-16.041-11.23-11.688-29.22
	c1.291-4.554,4.894-6.795,11.688-5.845c0.902-14.538-9.181-18.092-11.688-29.221c3.564-0.332,6.919-0.873,5.844-5.844
	c-52.011-17.926-97.257,18.914-93.507,75.975c9.084,8.448,22.774,12.29,35.065,17.531c3.23-10.404,3.002-24.27,11.688-29.221
	c29.005,2.386-5.214,19.997-5.844,29.221c11.917,1.721,11.46,15.814,23.377,17.533C546.52,423.92,570.198,401.479,566.887,374.027z"
	/>
<path fill-rule="evenodd" clip-rule="evenodd" fill="#FFFFFF" d="M157.793,128.572c-26.589-47.377-74.316,14.904-64.286,40.909
	c-5.202,2.59-10.452,5.133-11.688,11.688c9.628,0.023,12.697,10.963,23.377,23.377c-13.029,16.401-21.386-21.081-40.909-17.532
	c-24.798-84.052,73.619-121.871,116.884-64.287c-2.693,22.632-13.006,37.645-35.065,40.91
	C150.769,152.717,155.869,142.233,157.793,128.572z"/>
<path fill-rule="evenodd" clip-rule="evenodd" fill="#F5DC9A" d="M93.507,169.481c-10.03-26.004,37.697-88.286,64.286-40.909
	c-17.717-0.185-5.66,29.405-23.377,29.22c10.795,19.436,31.925,31.639,11.688,52.598
	C113.808,211.518,102.832,191.326,93.507,169.481z M122.728,181.169c-0.827-17.977,4.152-26.17,0-52.597
	c6.35-1.4,14.031-9.624,5.845-11.688c-11.697,11.902-37.511,40.112-17.532,64.286c-7.919,29.308,50.152,27.419,29.221,5.845
	C139.611,201.321,120.938,188.255,122.728,181.169z"/>
<path fill-rule="evenodd" clip-rule="evenodd" fill="#F3B236" d="M111.04,181.169c-19.979-24.173,5.835-52.383,17.532-64.286
	c8.187,2.064,0.505,10.289-5.845,11.688c4.152,26.427-0.827,34.621,0,52.597C118.832,181.169,114.936,181.169,111.04,181.169z"/>
<path fill-rule="evenodd" clip-rule="evenodd" fill="#D6A777" d="M344.808,157.792c5.844,0,11.688,0,17.532,0
	c23.473,11.593,36.39,33.741,52.598,52.598c0,1.948,0,3.896,0,5.844c9.509,232.625-297.289,55.938-134.417-52.597
	c13.768,0.131,17.207-10.066,35.066-5.845c-35.372,13.332-67.749,29.655-70.131,75.975c14.111-17.058,17.895-44.443,40.909-52.598
	c-50.301,37.417-36.021,122.635,23.377,140.261c10.28-1.407,13.321-10.056,11.688-23.376c2.006-21.488-21.291-17.672-35.065-23.377
	c-7.444-38.461-6.822-63.571,29.222-70.131c1.947,0,3.895,0,5.844,0c0.209,21.637-36.328,6.53-35.065,29.221
	c4.284,0.089,37.253-20.966,70.131-11.688c0.804,10.885,3.844,19.532,11.688,23.377c0,9.74,0,19.48,0,29.222
	c-10.356,7.176-30.802,4.262-35.064,17.531c-0.742,10.482,7.153,12.327,5.845,23.377c44.046,1.189,51.265-34.449,64.285-64.286
	C424.762,202.417,376.359,173.068,344.808,157.792z M298.054,233.768c0,9.74,0,19.48,0,29.221c25.009,7.395,28.901-0.427,58.442,0
	c0-9.74-0.001-19.48,0-29.221C345.849,224.838,308.7,224.838,298.054,233.768z"/>
<path fill-rule="evenodd" clip-rule="evenodd" fill="#F3B236" d="M315.587,157.792c9.74,0,19.48,0,29.221,0
	c31.552,15.276,79.954,44.624,58.441,93.508c0-3.896,0-7.792,0-11.689c-0.016-38.946-22.484-55.438-52.598-64.286
	c-1.947,0-3.896,0-5.844,0c-31.22,17.589,4.969,47.998,23.376,52.597c0,5.845,0,11.688,0,17.533
	c-7.844-3.845-10.884-12.492-11.688-23.377c-32.878-9.277-65.847,11.777-70.131,11.688c-1.263-22.691,35.274-7.584,35.065-29.221
	c6.978-17.439,1.61-19.87-5.844-35.065c-14.538-0.901-18.092,9.181-29.222,11.688c-23.015,8.155-26.798,35.54-40.909,52.598
	C247.838,187.447,280.215,171.124,315.587,157.792z"/>
<path fill-rule="evenodd" clip-rule="evenodd" fill="#D6A777" d="M350.651,175.326c30.113,8.848,52.582,25.34,52.598,64.286
	C395.559,208.34,376.342,188.597,350.651,175.326z"/>
<path fill-rule="evenodd" clip-rule="evenodd" fill="#D6A777" d="M368.184,227.923c-18.407-4.599-54.596-35.008-23.376-52.597
	C319.277,206.571,366.839,205.129,368.184,227.923z"/>
<path fill-rule="evenodd" clip-rule="evenodd" fill="#A291A1" d="M286.365,181.169c11.13-2.507,14.684-12.59,29.222-11.688
	c7.454,15.195,12.821,17.626,5.844,35.065c-1.949,0-3.896,0-5.844,0c-36.044,6.56-36.666,31.67-29.222,70.131
	c13.774,5.705,37.071,1.889,35.065,23.377c1.633,13.32-1.408,21.969-11.688,23.376C250.344,303.805,236.064,218.586,286.365,181.169
	z M286.365,286.365c-31.631-39.007,2.367-83.318,29.222-99.351c-64.716-8.804-66.954,100.059-23.377,116.884
	c7.901,1.838,11.161,8.318,23.377,5.844C319.666,288.13,306.339,283.924,286.365,286.365z"/>
<path fill-rule="evenodd" clip-rule="evenodd" fill="#A291A1" d="M344.808,175.326c1.948,0,3.896,0,5.844,0
	c25.69,13.271,44.907,33.015,52.598,64.286c0,3.896,0,7.793,0,11.689c-13.021,29.836-20.239,65.475-64.285,64.286
	c1.309-11.05-6.587-12.895-5.845-23.377c4.263-13.27,24.708-10.355,35.064-17.531c0-9.741,0-19.481,0-29.222
	c0-5.845,0-11.688,0-17.533C366.839,205.129,319.277,206.571,344.808,175.326z M391.561,257.145c1.948,0,3.896,0,5.844,0
	c-7.52-33.389-14.458-67.36-52.597-70.13c6.48,24.688,39,23.337,35.064,58.442c1.529,30.75-22.117,36.324-35.064,52.599
	C370.823,317.96,387.289,278.396,391.561,257.145z"/>
<path fill-rule="evenodd" clip-rule="evenodd" fill="#7A94CB" d="M292.21,303.898c-43.577-16.825-41.339-125.688,23.377-116.884
	c-26.854,16.033-60.853,60.344-29.222,99.351C289.458,291.064,292.462,295.854,292.21,303.898z"/>
<path fill-rule="evenodd" clip-rule="evenodd" fill="#A291A1" d="M356.496,233.768c-0.001,9.74,0,19.48,0,29.221
	c-29.541-0.427-33.434,7.395-58.442,0c0-9.74,0-19.48,0-29.221C308.7,224.838,345.849,224.838,356.496,233.768z M321.431,233.768
	c-5.844,0-11.688,0-17.533,0c0,7.792,0,15.584,0,23.377c9.74,0,19.48,0,29.222,0c6.877-0.915,16.589,1.004,17.532-5.844
	c-6.809-0.983-6.347-9.238-5.844-17.533C337.015,233.768,329.224,233.768,321.431,233.768z"/>
<path fill-rule="evenodd" clip-rule="evenodd" fill="#FFFFFF" d="M555.198,309.742c-3.564-0.332-6.919-0.873-5.844-5.844
	c-33.447,0.171-49.846,33.543-35.066,64.285c-8.686,4.951-8.457,18.816-11.688,29.221c-12.291-5.241-25.981-9.083-35.065-17.531
	c-3.75-57.061,41.496-93.9,93.507-75.975C562.117,308.869,558.763,309.41,555.198,309.742z"/>
<path fill-rule="evenodd" clip-rule="evenodd" fill="#F5DC9A" d="M555.198,309.742c2.508,11.129,12.591,14.683,11.688,29.221
	c-6.795-0.95-10.397,1.291-11.688,5.845c-4.353,17.989,16.041,11.231,11.688,29.22c-6.347-1.444-3.964-11.619-11.688-11.688
	c-18.791-1.914-12.888-32.1,0-35.065c-2.59-5.202-5.132-10.452-11.688-11.688c-17.137,0.396-21.706,13.359-29.222,23.377
	c-0.259,17.793,12.341,22.725,17.533,35.064c4.025,15.715-12.081,11.297-17.533,17.533c1.721,11.917,15.813,11.46,17.533,23.377
	c-11.917-1.719-11.46-15.813-23.377-17.533c0.63-9.224,34.849-26.835,5.844-29.221c-14.779-30.742,1.619-64.114,35.066-64.285
	C548.279,308.869,551.634,309.41,555.198,309.742z"/>
<path fill-rule="evenodd" clip-rule="evenodd" fill="#D6A777" d="M566.887,374.027c3.312,27.451-20.367,49.893-35.065,40.91
	c-1.72-11.917-15.813-11.46-17.533-23.377c5.452-6.236,21.559-1.818,17.533-17.533c11.342-2.316,8.538,26.62-5.844,17.533
	c32.165,30.017,19.973-18.161,29.221-29.221C562.923,362.408,560.54,372.583,566.887,374.027z"/>
<path fill-rule="evenodd" clip-rule="evenodd" fill="#7A94CB" d="M601.951,327.274c12.331-31.775,23.813,47.728,23.377,52.599
	c-6.714,75.182-126.257,103.865-146.104,40.908c1.948,0,3.896,0,5.844,0c5.863-0.02,6.955,4.733,11.688,5.845
	c19.177,12.679,44.998,13.252,70.131,5.844c-0.161,5.684-7.153,4.536-11.688,5.845c24.232,14.279,45.559-24.412,58.442-40.91
	c-1.111-6.633-5.863-3.244-5.845,0c-1.948,0-3.896,0-5.845,0c0-3.895,0-7.791,0-11.688
	C615.909,375.131,605.244,339.957,601.951,327.274z"/>
<path fill-rule="evenodd" clip-rule="evenodd" fill="#5A6EB3" d="M566.887,432.47c19.794-3.582,20.817-25.935,35.064-35.065
	c1.948,0,3.896,0,5.845,0c-0.019-3.244,4.733-6.633,5.845,0c-12.884,16.498-34.21,55.189-58.442,40.91
	C559.733,437.006,566.726,438.153,566.887,432.47z"/>
<path fill-rule="evenodd" clip-rule="evenodd" fill="#93A9D8" d="M473.379,485.068c-84.42,6.472-223.14,16.664-298.054-5.845
	c13.768-0.131,17.207,10.066,35.065,5.845C298.054,485.068,385.717,485.068,473.379,485.068z"/>
<path fill-rule="evenodd" clip-rule="evenodd" fill="#7A94CB" d="M379.872,245.456c3.936-35.104-28.584-33.754-35.064-58.442
	c38.139,2.771,45.077,36.741,52.597,70.13c-1.947,0-3.896,0-5.844,0C393.71,247.203,387.003,246.119,379.872,245.456z"/>
<path fill-rule="evenodd" clip-rule="evenodd" fill="#5A6EB3" d="M321.431,233.768c7.793,0,15.584,0,23.377,0
	c-0.503,8.294-0.965,16.55,5.844,17.533c-0.943,6.848-10.655,4.929-17.532,5.844C337.376,241.199,321.506,245.38,321.431,233.768z"
	/>
<path fill-rule="evenodd" clip-rule="evenodd" fill="#5A6EB3" d="M391.561,257.145c-4.271,21.252-20.737,60.815-46.753,40.91
	c12.947-16.274,36.594-21.849,35.064-52.599C387.003,246.119,393.71,247.203,391.561,257.145z"/>
<path fill-rule="evenodd" clip-rule="evenodd" fill="#5A6EB3" d="M286.365,286.365c19.974-2.441,33.301,1.765,29.222,23.377
	c-12.216,2.475-15.476-4.006-23.377-5.844C292.462,295.854,289.458,291.064,286.365,286.365z"/>
<path fill-rule="evenodd" clip-rule="evenodd" fill="#5A6EB3" d="M485.067,461.691c-8.102,3.586-0.879,22.497-11.688,23.377
	c-87.662,0-175.325,0-262.988,0c-4.588-12.945-36.18,1.113-29.221-23.377c15.77,11.503,51.067,3.478,75.975,5.844
	c-167.602-25.004,56.787-54.301,75.975-99.352c-37.853-6.539-49.519,43.797-81.819,23.377c16.946-6.432,39.521-7.232,40.91-29.221
	c-5.122-22.1-41.051-15.842-29.222-40.909c56.799,40.108,156.82,11.257,157.793-58.442c13.744-17.991,3.468-2.332,23.377,0
	c-5.005,18.372-22.092,24.662-23.377,46.754c28.191,8.71,12.135-26.827,35.066-23.377c-19.048,26.131-40.417,101.445-5.845,128.572
	C450.952,441.262,481.053,438.435,485.067,461.691z"/>
<path fill-rule="evenodd" clip-rule="evenodd" fill="#C4CFEB" d="M93.507,350.651C39.857,294.893,170.771,320.348,93.507,350.651
	L93.507,350.651z"/>
<path fill-rule="evenodd" clip-rule="evenodd" fill="#F3B236" d="M555.198,362.34c-9.248,11.06,2.944,59.237-29.221,29.221
	c14.382,9.087,17.186-19.85,5.844-17.533c-5.192-12.34-17.792-17.271-17.533-35.064c7.516-10.018,12.085-22.98,29.222-23.377
	c6.557,1.236,9.099,6.486,11.688,11.688C542.311,330.24,536.407,360.426,555.198,362.34z"/>
</svg>
