<?xml version="1.0" encoding="utf-8"?>
<!-- Generator: Adobe Illustrator 15.0.0, SVG Export Plug-In  -->
<!DOCTYPE svg PUBLIC "-//W3C//DTD SVG 1.1//EN" "http://www.w3.org/Graphics/SVG/1.1/DTD/svg11.dtd" [
	<!ENTITY ns_flows "http://ns.adobe.com/Flows/1.0/">
]>
<svg version="1.1"
	 xmlns="http://www.w3.org/2000/svg" xmlns:xlink="http://www.w3.org/1999/xlink" xmlns:a="http://ns.adobe.com/AdobeSVGViewerExtensions/3.0/"
	 x="0px" y="0px" width="709px" height="709px" viewBox="-8.321 -33.88 709 709" enable-background="new -8.321 -33.88 709 709"
	 xml:space="preserve">
<defs>
</defs>
<path fill-rule="evenodd" clip-rule="evenodd" fill="#FFFFFF" d="M558.096,0c88.132,1.15,130.328,48.235,133.922,133.92
	C661.142,75.515,619.429,27.947,558.096,0z"/>
<path fill-rule="evenodd" clip-rule="evenodd" fill="#FFFFFF" d="M644.189,133.92c-30.605-23.6-39.285-69.125-86.093-76.526
	C574.354,22.419,659.704,74.323,644.189,133.92z"/>
<path fill-rule="evenodd" clip-rule="evenodd" fill="#FFFFFF" d="M596.362,105.223c13.976,60.875,16.874,178.751,0,239.143
	c-41.629-41.275-8.55-157.259-19.131-229.578c-160.119-16.177-385.019-15.484-545.246,0c-21.723,93.064-3.626,225.949-9.565,334.8
	c67.923,21.354,174.663,3.896,258.275,9.563c-48.809,43.665-177.841,7.097-258.275,19.134
	c21.096,82.471,148.687,47.825,239.142,47.825c99.242,0,205.237,0,286.969,0c44.416,9.341,12.98-57.165,57.396-47.825
	c14.173,106.638-130.312,54.622-210.442,66.959c1.025,49.989,34.506,67.525,57.393,95.655c-102.034,0-204.069,0-306.103,0
	c26.938-24.078,59.5-42.534,66.961-86.089c-44.782-22.178-130.623-3.298-191.315-9.566C-13.059,436.75,1.426,228.904,12.856,105.223
	C165.818,73.821,443.399,73.821,596.362,105.223z M213.735,621.77c60.58,0,121.164,0,181.749,0
	c2.201-37.28-20.556-49.597-28.699-76.525C284.827,539.812,204.241,535.751,213.735,621.77z"/>
<path fill-rule="evenodd" clip-rule="evenodd" fill="#FFFFFF" d="M385.916,143.486c-32.831,42.268-60.398,21.968-95.654,47.827
	C75.422,348.877,479.629,585.382,500.704,286.971c32.142-9.823,14.888,29.75,19.136,47.828
	c44.021,58.012,170.059,34.007,172.179,133.919c-69.939,17.327-136.688-38.415-191.314-66.959
	C287.075,629.141,56.392,146.422,385.916,143.486z M500.704,382.627c54.97,27.935,110.356,55.447,172.182,76.524
	C649.344,409.186,537.636,356.706,500.704,382.627z"/>
<path fill-rule="evenodd" clip-rule="evenodd" fill="#FFFFFF" d="M51.118,172.184c39.618-1.354,9.961,66.563,19.131,95.655
	C30.633,269.194,60.285,201.278,51.118,172.184z"/>
<path fill-rule="evenodd" clip-rule="evenodd" fill="#FFFFFF" d="M414.612,239.143c-4.344,40.295-45.241,44.039-57.393,76.525
	c-33.586,1.7-31.46-32.311-57.396-38.262c-28.288,35.271,30.506,47.387,38.269,76.525c65.079-9.769,82.111-113.513,143.481-95.656
	c-38.162,44.738-83.204,82.603-124.354,124.353c-43.785-19.988-75.669-51.875-95.658-95.656c34.472-38.628,51.622-38.628,86.094,0
	C376.883,277.938,377.636,240.424,414.612,239.143z"/>
</svg>
