<?xml version="1.0" encoding="utf-8"?>
<!-- Generator: Adobe Illustrator 15.0.0, SVG Export Plug-In  -->
<!DOCTYPE svg PUBLIC "-//W3C//DTD SVG 1.1//EN" "http://www.w3.org/Graphics/SVG/1.1/DTD/svg11.dtd" [
	<!ENTITY ns_flows "http://ns.adobe.com/Flows/1.0/">
]>
<svg version="1.1"
	 xmlns="http://www.w3.org/2000/svg" xmlns:xlink="http://www.w3.org/1999/xlink" xmlns:a="http://ns.adobe.com/AdobeSVGViewerExtensions/3.0/"
	 x="0px" y="0px" width="709px" height="709px" viewBox="-95.875 -46.454 709 709" enable-background="new -95.875 -46.454 709 709"
	 xml:space="preserve">
<defs>
</defs>
<path fill-rule="evenodd" clip-rule="evenodd" fill="#FFFFFF" d="M368.576,101.671c180.521-34.22,162.181,269.457,17.756,230.849
	c110.062-11.42,139.316-209.729,0-213.091c-23.544-2.828,8.307,49.739-26.636,35.516c19.02-165.472-214.81-178.041-239.726-44.395
	c-6.856,39.411,29.368,35.743,44.397,53.272c-54.151-4.883-137.08-20.745-150.941,53.273
	c-9.747,52.062,21.592,94.022,88.788,106.542c-107.738,66.543-162.145-209.678,0-186.452
	C87.499-26.973,351.447-49.947,368.576,101.671z"/>
<path fill-rule="evenodd" clip-rule="evenodd" fill="#FFFFFF" d="M235.396,39.521c-18.177,29.179-48.511,46.196-79.912,62.15
	C167.051,65.883,191.013,42.491,235.396,39.521z"/>
<path fill-rule="evenodd" clip-rule="evenodd" fill="#FFFFFF" d="M288.667,199.337c-49.162-30.654-14.521,89.328-35.515,115.423
	c-22.732,7.303-63.986,41.97-88.785,17.759c48.146-22.884,100.03-42.027,79.908-133.182c-5.844-26.592-18.979,8.491-35.519,0
	C214.837,144.883,289.108,127.623,288.667,199.337z"/>
<path fill-rule="evenodd" clip-rule="evenodd" fill="#FFFFFF" d="M324.18,314.761c-35.058,33.011-83.6,52.537-62.152,142.059
	c3.88,13.178,11.365-3.503,26.64,0c-11.45,59.825-68.462,59.825-79.911,0c15.93-1.128,18.728,10.869,35.519,8.879
	C239.236,383.712,238.516,306.044,324.18,314.761z"/>
<path fill-rule="evenodd" clip-rule="evenodd" fill="#FFFFFF" d="M48.94,359.154c37.899,3.536,8.466,74.403,17.759,106.544
	C28.801,462.162,58.234,391.294,48.94,359.154z"/>
<path fill-rule="evenodd" clip-rule="evenodd" fill="#FFFFFF" d="M217.637,403.547c-32.555,0-65.111,0-97.667,0
	c-18.859,37.371-4.309,108.156-8.877,159.817c88.786,0,177.575,0,266.36,0c18.969-47.972,16.136-119.235,8.879-150.938
	c-17.414-24.019-88.283,5.418-106.543-17.759c21.01-20.421,79.687-3.18,115.424-8.877c43.701,36.207-18.954,178.771,53.271,186.45
	c21.521,87.531-112.667,62.151-195.331,62.151c-79.588,0-218.69,25.213-204.212-53.271c-9.114-29.833,27.614-13.821,44.395-17.757
	C65.495,451.771,114.447,325.231,217.637,403.547z M66.699,598.878c-0.029,8.906,7.193,10.565,8.881,17.759
	C186.849,600.647,363.185,649.721,430.724,590C332.729,580.853,149.996,563.746,66.699,598.878z"/>
<path fill-rule="evenodd" clip-rule="evenodd" fill="#FFFFFF" d="M439.604,421.305c13.559,0.144,19.468,65.796-8.88,53.272
	C429.553,452.69,429.381,431.799,439.604,421.305z"/>
</svg>
