<?xml version="1.0" encoding="utf-8"?>
<!-- Generator: Adobe Illustrator 15.0.0, SVG Export Plug-In  -->
<!DOCTYPE svg PUBLIC "-//W3C//DTD SVG 1.1//EN" "http://www.w3.org/Graphics/SVG/1.1/DTD/svg11.dtd" [
	<!ENTITY ns_flows "http://ns.adobe.com/Flows/1.0/">
]>
<svg version="1.1"
	 xmlns="http://www.w3.org/2000/svg" xmlns:xlink="http://www.w3.org/1999/xlink" xmlns:a="http://ns.adobe.com/AdobeSVGViewerExtensions/3.0/"
	 x="0px" y="0px" width="709px" height="709px" viewBox="-92.6 -61.202 709 709" enable-background="new -92.6 -61.202 709 709"
	 xml:space="preserve">
<defs>
</defs>
<path fill-rule="evenodd" clip-rule="evenodd" fill="#FFFFFF" d="M509.707,25.201c11.947,120.973,28.01,329.386-10.331,433.906
	c-56.317,26.333-171.623-6.328-227.282,20.664c10.73,78.803,117.356,61.71,206.622,61.985
	c-40.48,49.058-186.61-7.537-206.622,61.986c-43.595-45.941-133.108-45.967-227.288-41.321
	c43.074-53.353,215.018,22.168,206.622-82.65c-48.365-23.952-141.076-3.559-206.622-10.332
	C-25.278,358.517,2.429,135.18,24.143,25.201C143.023-8.4,390.825-8.4,509.707,25.201z M65.465,25.201
	c-44.109,7.542-28.51,74.796-30.989,123.972c154.968,0,309.933,0,464.9,0c1.028-42.355,2.033-84.682-10.332-113.643
	C367.219,12.718,204.165,31.138,65.465,25.201z M34.476,169.835c0,44.77,0,89.538,0,134.303c154.968,0,309.933,0,464.9,0
	c0-44.765,0-89.533,0-134.303C344.409,169.835,189.444,169.835,34.476,169.835z M34.476,324.803
	c3.356,37.966-8.816,91.461,10.33,113.643c124.429,23.649,292.377,3.78,433.91,10.331c23-25.209,22.656-73.766,20.66-123.974
	C344.409,324.803,189.444,324.803,34.476,324.803z M241.098,572.75c32.433,11.475,27.294,4.835,51.657-10.329
	c-1.262-26.291-15.036-40.063-41.327-41.325C242.759,533.086,237.804,548.793,241.098,572.75z"/>
<path fill-rule="evenodd" clip-rule="evenodd" fill="#FFFFFF" d="M437.388,97.516c-13.772,0-27.548,0-41.322,0
	C387.924,57.738,445.529,57.738,437.388,97.516z"/>
<path fill-rule="evenodd" clip-rule="evenodd" fill="#FFFFFF" d="M86.131,87.185C117.452,48.991,120.932,118.563,86.131,87.185
	L86.131,87.185z"/>
<path fill-rule="evenodd" clip-rule="evenodd" fill="#FFFFFF" d="M220.434,221.492c6.89,0,13.778,0,20.664,0
	c0,6.886,0,13.774,0,20.661c-6.886,0-13.774,0-20.664,0C220.434,235.266,220.434,228.378,220.434,221.492z"/>
<path fill-rule="evenodd" clip-rule="evenodd" fill="#FFFFFF" d="M416.729,355.795c26.285,1.05,24.407,38.498,10.331,51.656
	C384.798,413.109,392.137,362.845,416.729,355.795z"/>
<path fill-rule="evenodd" clip-rule="evenodd" fill="#FFFFFF" d="M137.787,366.128c8.367,1.965,10.295,10.364,20.663,10.331
	c-1.966,8.367-10.368,10.296-10.334,20.661c-8.365-1.963-10.294-10.365-20.661-10.331
	C129.42,378.422,137.821,376.492,137.787,366.128z"/>
<path fill-rule="evenodd" clip-rule="evenodd" fill="#FFFFFF" d="M179.109,366.128C223.882,370.431,168.229,426.088,179.109,366.128
	L179.109,366.128z"/>
<path fill-rule="evenodd" clip-rule="evenodd" fill="#FFFFFF" d="M86.131,386.789C117.452,348.593,120.932,418.165,86.131,386.789
	L86.131,386.789z"/>
<path fill-rule="evenodd" clip-rule="evenodd" fill="#FFFFFF" d="M251.428,521.096c26.291,1.262,40.065,15.034,41.327,41.325
	c-24.362,15.164-19.224,21.804-51.657,10.329C237.804,548.793,242.759,533.086,251.428,521.096z"/>
</svg>
