<?xml version="1.0" encoding="UTF-8"?>
<!DOCTYPE svg PUBLIC "-//W3C//DTD SVG 1.1//EN" "http://www.w3.org/Graphics/SVG/1.1/DTD/svg11.dtd">
<!-- Creator: CorelDRAW X8 -->
<svg xmlns="http://www.w3.org/2000/svg" xml:space="preserve" width="105mm" height="105mm" version="1.1" style="shape-rendering:geometricPrecision; text-rendering:geometricPrecision; image-rendering:optimizeQuality; fill-rule:evenodd; clip-rule:evenodd"
viewBox="0 0 10500 10500"
 xmlns:xlink="http://www.w3.org/1999/xlink">
 <defs>
  <style type="text/css">
   <![CDATA[
    .fil0 {fill:#4FBBEB;fill-rule:nonzero}
    .fil1 {fill:#444547;fill-rule:nonzero}
   ]]>
  </style>
 </defs>
 <g id="Layer_x0020_1">
  <metadata id="CorelCorpID_0Corel-Layer"/>
  <path class="fil0" d="M3762 6324c0,19 -7,36 -20,50 -14,13 -31,20 -51,20l-300 0c-19,0 -36,-7 -50,-20 -14,-14 -21,-31 -21,-50l0 -602c0,-24 12,-36 36,-36l71 0c24,0 35,12 35,36l0 530 158 0 0 -211 -53 0c-19,0 -36,-7 -50,-20 -13,-14 -20,-31 -20,-51 0,-19 7,-36 21,-50 14,-14 30,-21 50,-21l124 0c19,0 36,7 50,21 13,14 20,30 20,50l0 0 0 354zm1113 -713l-597 0c-148,0 -259,-73 -323,-175 -32,-51 -52,-109 -59,-168 -36,-310 215,-409 364,-592 99,-93 -25,-13 -8,-159 36,-213 291,-107 278,-34 35,14 56,2 150,6 48,-91 105,-200 227,-127 49,30 77,70 65,91 -21,36 -64,48 -96,54 153,35 162,125 230,203 17,20 35,35 55,48 60,25 179,34 239,34 12,0 42,30 42,58 0,28 -11,46 -27,54 -38,126 -64,150 -118,167 5,4 53,46 11,78 -60,50 -143,79 -245,87l-9 0c-50,14 -105,25 -177,34l-1 0c-38,18 -67,48 -82,97 -30,100 6,167 81,244zm-618 748c0,23 -11,35 -35,35l0 0 -283 0c-19,0 -36,-7 -50,-20 -14,-14 -21,-30 -21,-50l0 0 0 -354c0,-20 7,-36 21,-50 14,-14 30,-21 50,-21l248 0c19,0 36,7 50,21 13,14 20,30 20,50l0 177c0,19 -7,36 -20,50 -14,14 -31,21 -50,21l-177 0 0 34 212 0c24,0 35,12 35,36l0 71zm-141 -265l0 -53 -106 0 0 53 106 0zm671 265c0,23 -12,35 -35,35l-71 0c-24,0 -36,-12 -36,-34l0 -319 -141 0 0 211 35 0c19,0 36,7 50,21 14,14 21,31 21,50 0,20 -7,37 -21,50 -14,14 -30,21 -50,21l0 0 -106 0c-19,0 -36,-7 -50,-20 -14,-14 -21,-30 -21,-50l0 0 0 -354c0,-20 7,-36 21,-50 14,-14 31,-21 50,-21l283 0c20,0 37,7 50,21 14,14 21,30 21,50l0 389zm432 -353c0,23 -12,35 -36,35l-150 0 0 319c0,23 -12,35 -36,35l-71 0c-23,0 -35,-12 -35,-35l0 -390c0,-20 7,-36 21,-50 13,-14 30,-21 50,-21l221 0c24,0 36,12 36,36l0 71z"/>
  <path class="fil1" d="M4866 4252c115,-96 262,-147 417,-147 295,0 544,200 613,481 12,36 20,73 25,111 150,0 303,49 399,168 60,73 97,171 97,293 0,251 -204,453 -454,453l-969 0 -58 -60c-30,-31 -49,-58 -59,-80 -7,-16 -9,-28 -9,-37l1 -6 1094 0c150,0 271,-119 271,-270 0,-63 -14,-128 -55,-178 -76,-92 -224,-111 -336,-105l-32 3c-74,9 -179,76 -223,134l-82 110 40 -131c20,-64 51,-122 85,-169 36,-49 75,-88 109,-109 -7,-51 -19,-101 -38,-149l0 0c-28,-64 -75,-124 -128,-170 -81,-69 -184,-106 -291,-106 -91,0 -178,23 -253,70 -18,-24 -46,-49 -79,-69 -31,-19 -60,-30 -85,-37zm2232 2143l63 0c10,0 19,-8 19,-19l0 -62c0,-11 -9,-19 -19,-19l-63 0c-10,0 -18,8 -18,19l0 62c0,11 8,19 18,19zm-599 -371l0 -24 155 0 0 0 62 0c10,0 18,-8 18,-19l0 -62c0,-11 -8,-19 -18,-19l-267 0c-28,0 -50,22 -50,50l0 197c0,28 22,50 50,50l185 0 0 73 0 0 0 25 -155 0 0 0 -62 0c-10,0 -18,8 -18,18l0 63c0,10 8,19 18,19l267 -1c28,0 50,-21 50,-50l0 -197c0,-28 -22,-50 -50,-50l-185 0 0 -73 0 0zm359 371l63 0c10,0 18,-8 18,-19l0 -374 84 0 0 0 26 0c10,0 18,-9 18,-19l0 -63c0,-10 -8,-18 -18,-18l-110 0 0 -179c0,-10 -8,-18 -18,-18l-63 0c-10,0 -18,8 -18,18l0 17 -1 0 0 623 1 0 0 13c0,11 8,19 18,19zm-1433 -656l0 -36c0,-10 -9,-19 -19,-19l-63 0c-10,0 -18,9 -18,19l0 42 0 0 0 573 0 0 0 57c0,10 8,19 18,19l63 0c10,0 19,-9 19,-19l0 -373 233 0 0 373c0,10 8,19 18,19l63 0c11,0 19,-9 19,-19l0 -32 0 0 0 -392c0,-14 -5,-25 -15,-35l0 0c-10,-10 -21,-14 -35,-14l-283 0 0 -163zm866 625c3,-6 4,-12 4,-19l0 -393c0,-7 -1,-14 -4,-19 -2,-7 -6,-12 -11,-17l0 0c-10,-10 -21,-14 -35,-14l-334 0c-27,0 -50,22 -50,50l0 393c0,28 22,50 50,50l334 0c20,0 39,-12 46,-31zm-96 -333l0 264 -234 0 0 -293 234 0 0 29z"/>
 </g>
</svg>
